  0
SECTION
  2
HEADER
  9
$ANGBASE
  50
0.0
  9
$ANGDIR
  70
1
  9
$MEASUREMENT
  70
0
  0
ENDSEC
  0
SECTION
  2
TABLES
  0
TABLE
  2
LTYPE
  70
4
  0
LTYPE
  5
40F
  2
CONTINUOUS
  70
0
  3
Solid line
  72
65
  73
0
  40
0.0
  0
LTYPE
  5
410
  2
DASHDOT
 70
0
  3
Dash Dot ____ _ ____ _
 72
65
 73
4
 40
2.0
 49
1.25
 49
-0.25
 49
0.25
 49
-0.25
  0
LTYPE
  5
411
  2
DASHED
 70
0
  3
Dashed __ __ __ __ __
 72
65
 73
2
 40
0.75
 49
0.5
 49
-0.25
  0
LTYPE
  5
43B
  2
DOTTED
 70
0
  3
Dotted .  .  .  .
 72
65
 73
2
 40
0.2
 49
0.0
 49
-0.2
  0
ENDTAB
  0
TABLE
  2
STYLE
  70
4
  0
STYLE
  2
KICAD
  70
0
  40
0
  41
1
  42
1
  50
0
  71
0
  3
isocp.shx
  0
STYLE
  2
KICADB
  70
0
  40
0
  41
1
  42
1
  50
0
  71
0
  3
isocp.shx
  0
STYLE
  2
KICADI
  70
0
  40
0
  41
1
  42
1
  50
15
  71
0
  3
isocp.shx
  0
STYLE
  2
KICADBI
  70
0
  40
0
  41
1
  42
1
  50
15
  71
0
  3
isocp.shx
  0
ENDTAB
  0
TABLE
  2
LAYER
  70
1
  0
LAYER
  2
BLACK
  70
0
  62
7
  6
CONTINUOUS
  0
ENDTAB
  0
ENDSEC
  0
SECTION
  2
ENTITIES
0
LINE
8
BLACK
6
CONTINUOUS
10
3.16929
20
-3.06102
11
3.16929
21
-3.12008
0
LINE
8
BLACK
6
CONTINUOUS
10
3.16929
20
-3.12008
11
2.77559
21
-3.17913
0
LINE
8
BLACK
6
CONTINUOUS
10
2.77559
20
-3.17913
11
2.77559
21
-3.00197
0
LINE
8
BLACK
6
CONTINUOUS
10
2.77559
20
-3.00197
11
3.16929
21
-3.06102
0
LINE
8
BLACK
6
CONTINUOUS
10
3.16929
20
-2.86417
11
3.16929
21
-2.92323
0
LINE
8
BLACK
6
CONTINUOUS
10
3.16929
20
-2.92323
11
2.77559
21
-2.98228
0
LINE
8
BLACK
6
CONTINUOUS
10
2.77559
20
-2.98228
11
2.77559
21
-2.80512
0
LINE
8
BLACK
6
CONTINUOUS
10
2.77559
20
-2.80512
11
3.16929
21
-2.86417
0
LINE
8
BLACK
6
CONTINUOUS
10
3.16929
20
-2.66732
11
3.16929
21
-2.72638
0
LINE
8
BLACK
6
CONTINUOUS
10
3.16929
20
-2.72638
11
2.77559
21
-2.78543
0
LINE
8
BLACK
6
CONTINUOUS
10
2.77559
20
-2.78543
11
2.77559
21
-2.60827
0
LINE
8
BLACK
6
CONTINUOUS
10
2.77559
20
-2.60827
11
3.16929
21
-2.66732
0
LINE
8
BLACK
6
CONTINUOUS
10
3.16929
20
-2.47047
11
3.16929
21
-2.52953
0
LINE
8
BLACK
6
CONTINUOUS
10
3.16929
20
-2.52953
11
2.77559
21
-2.58858
0
LINE
8
BLACK
6
CONTINUOUS
10
2.77559
20
-2.58858
11
2.77559
21
-2.41142
0
LINE
8
BLACK
6
CONTINUOUS
10
2.77559
20
-2.41142
11
3.16929
21
-2.47047
0
LINE
8
BLACK
6
CONTINUOUS
10
3.16929
20
-2.27362
11
3.16929
21
-2.33268
0
LINE
8
BLACK
6
CONTINUOUS
10
3.16929
20
-2.33268
11
2.77559
21
-2.39173
0
LINE
8
BLACK
6
CONTINUOUS
10
2.77559
20
-2.39173
11
2.77559
21
-2.21457
0
LINE
8
BLACK
6
CONTINUOUS
10
2.77559
20
-2.21457
11
3.16929
21
-2.27362
0
LINE
8
BLACK
6
CONTINUOUS
10
3.16929
20
-2.07677
11
3.16929
21
-2.13583
0
LINE
8
BLACK
6
CONTINUOUS
10
3.16929
20
-2.13583
11
2.77559
21
-2.19488
0
LINE
8
BLACK
6
CONTINUOUS
10
2.77559
20
-2.19488
11
2.77559
21
-2.01772
0
LINE
8
BLACK
6
CONTINUOUS
10
2.77559
20
-2.01772
11
3.16929
21
-2.07677
0
LINE
8
BLACK
6
CONTINUOUS
10
3.16929
20
-1.87992
11
3.16929
21
-1.93898
0
LINE
8
BLACK
6
CONTINUOUS
10
3.16929
20
-1.93898
11
2.77559
21
-1.99803
0
LINE
8
BLACK
6
CONTINUOUS
10
2.77559
20
-1.99803
11
2.77559
21
-1.82087
0
LINE
8
BLACK
6
CONTINUOUS
10
2.77559
20
-1.82087
11
3.16929
21
-1.87992
0
LINE
8
BLACK
6
CONTINUOUS
10
3.16929
20
-1.68307
11
3.16929
21
-1.74213
0
LINE
8
BLACK
6
CONTINUOUS
10
3.16929
20
-1.74213
11
2.77559
21
-1.80118
0
LINE
8
BLACK
6
CONTINUOUS
10
2.77559
20
-1.80118
11
2.77559
21
-1.62402
0
LINE
8
BLACK
6
CONTINUOUS
10
2.77559
20
-1.62402
11
3.16929
21
-1.68307
0
LINE
8
BLACK
6
CONTINUOUS
10
3.16929
20
-1.48622
11
3.16929
21
-1.54528
0
LINE
8
BLACK
6
CONTINUOUS
10
3.16929
20
-1.54528
11
2.77559
21
-1.60433
0
LINE
8
BLACK
6
CONTINUOUS
10
2.77559
20
-1.60433
11
2.77559
21
-1.42717
0
LINE
8
BLACK
6
CONTINUOUS
10
2.77559
20
-1.42717
11
3.16929
21
-1.48622
0
LINE
8
BLACK
6
CONTINUOUS
10
3.16929
20
-1.28937
11
3.16929
21
-1.34843
0
LINE
8
BLACK
6
CONTINUOUS
10
3.16929
20
-1.34843
11
2.77559
21
-1.40748
0
LINE
8
BLACK
6
CONTINUOUS
10
2.77559
20
-1.40748
11
2.77559
21
-1.23031
0
LINE
8
BLACK
6
CONTINUOUS
10
2.77559
20
-1.23031
11
3.16929
21
-1.28937
0
LINE
8
BLACK
6
CONTINUOUS
10
3.16929
20
-1.09252
11
3.16929
21
-1.15157
0
LINE
8
BLACK
6
CONTINUOUS
10
3.16929
20
-1.15157
11
2.77559
21
-1.21063
0
LINE
8
BLACK
6
CONTINUOUS
10
2.77559
20
-1.21063
11
2.77559
21
-1.03346
0
LINE
8
BLACK
6
CONTINUOUS
10
2.77559
20
-1.03346
11
3.16929
21
-1.09252
0
LINE
8
BLACK
6
CONTINUOUS
10
3.16929
20
-0.895669
11
3.16929
21
-0.954724
0
LINE
8
BLACK
6
CONTINUOUS
10
3.16929
20
-0.954724
11
2.77559
21
-1.01378
0
LINE
8
BLACK
6
CONTINUOUS
10
2.77559
20
-1.01378
11
2.77559
21
-0.836614
0
LINE
8
BLACK
6
CONTINUOUS
10
2.77559
20
-0.836614
11
3.16929
21
-0.895669
0
CIRCLE
8
BLACK
10
2.97244
20
-0.925197
40
0.00590551
0
CIRCLE
8
BLACK
10
2.97244
20
-1.3189
40
0.00590551
0
CIRCLE
8
BLACK
10
2.97244
20
-1.7126
40
0.00590551
0
CIRCLE
8
BLACK
10
2.97244
20
-2.1063
40
0.00590551
0
CIRCLE
8
BLACK
10
2.97244
20
-2.5
40
0.00590551
0
CIRCLE
8
BLACK
10
2.97244
20
-2.8937
40
0.00590551
0
CIRCLE
8
BLACK
10
2.97244
20
-2.30315
40
0.00590551
0
CIRCLE
8
BLACK
10
2.97244
20
-2.69685
40
0.00590551
0
CIRCLE
8
BLACK
10
2.97244
20
-3.09055
40
0.00590551
0
CIRCLE
8
BLACK
10
2.97244
20
-1.90945
40
0.00590551
0
CIRCLE
8
BLACK
10
2.97244
20
-1.12205
40
0.00590551
0
CIRCLE
8
BLACK
10
2.97244
20
-1.51575
40
0.00590551
  0
ENDSEC
  0
EOF
