%TF.GenerationSoftware,KiCad,Pcbnew,(6.0.10-0)*%
%TF.CreationDate,2025-02-20T17:08:05+01:00*%
%TF.ProjectId,MiniChord,4d696e69-4368-46f7-9264-2e6b69636164,rev?*%
%TF.SameCoordinates,Original*%
%TF.FileFunction,Legend,Bot*%
%TF.FilePolarity,Positive*%
%FSLAX46Y46*%
G04 Gerber Fmt 4.6, Leading zero omitted, Abs format (unit mm)*
G04 Created by KiCad (PCBNEW (6.0.10-0)) date 2025-02-20 17:08:05*
%MOMM*%
%LPD*%
G01*
G04 APERTURE LIST*
G04 Aperture macros list*
%AMRoundRect*
0 Rectangle with rounded corners*
0 $1 Rounding radius*
0 $2 $3 $4 $5 $6 $7 $8 $9 X,Y pos of 4 corners*
0 Add a 4 corners polygon primitive as box body*
4,1,4,$2,$3,$4,$5,$6,$7,$8,$9,$2,$3,0*
0 Add four circle primitives for the rounded corners*
1,1,$1+$1,$2,$3*
1,1,$1+$1,$4,$5*
1,1,$1+$1,$6,$7*
1,1,$1+$1,$8,$9*
0 Add four rect primitives between the rounded corners*
20,1,$1+$1,$2,$3,$4,$5,0*
20,1,$1+$1,$4,$5,$6,$7,0*
20,1,$1+$1,$6,$7,$8,$9,0*
20,1,$1+$1,$8,$9,$2,$3,0*%
%AMHorizOval*
0 Thick line with rounded ends*
0 $1 width*
0 $2 $3 position (X,Y) of the first rounded end (center of the circle)*
0 $4 $5 position (X,Y) of the second rounded end (center of the circle)*
0 Add line between two ends*
20,1,$1,$2,$3,$4,$5,0*
0 Add two circle primitives to create the rounded ends*
1,1,$1,$2,$3*
1,1,$1,$4,$5*%
G04 Aperture macros list end*
%ADD10C,0.300000*%
%ADD11C,0.150000*%
%ADD12C,0.100000*%
%ADD13C,0.075000*%
%ADD14C,0.130000*%
%ADD15C,0.400000*%
%ADD16C,0.120000*%
%ADD17C,1.800000*%
%ADD18C,2.000000*%
%ADD19R,1.070000X1.800000*%
%ADD20O,1.070000X1.800000*%
%ADD21R,1.800000X1.800000*%
%ADD22C,1.700000*%
%ADD23O,1.900000X3.300000*%
%ADD24C,1.600000*%
%ADD25O,2.050000X1.800000*%
%ADD26C,1.100000*%
%ADD27C,1.850000*%
%ADD28C,1.650000*%
%ADD29C,1.750000*%
%ADD30HorizOval,1.200000X-0.353553X-0.353553X0.353553X0.353553X0*%
%ADD31HorizOval,1.200000X0.353553X-0.353553X-0.353553X0.353553X0*%
%ADD32HorizOval,1.200000X0.353553X0.353553X-0.353553X-0.353553X0*%
%ADD33RoundRect,0.250000X-0.625000X0.350000X-0.625000X-0.350000X0.625000X-0.350000X0.625000X0.350000X0*%
%ADD34O,1.750000X1.200000*%
G04 APERTURE END LIST*
D10*
X114000000Y-135500000D02*
X114000000Y-138000000D01*
X134000000Y-139500000D02*
X147500000Y-139500000D01*
X149000000Y-125000000D02*
X149000000Y-98000000D01*
D11*
X139750000Y-82750000D02*
X139750000Y-82750000D01*
D10*
X115500000Y-139500000D02*
X124500000Y-139500000D01*
X114000000Y-88000000D02*
X113939340Y-109500000D01*
X125500000Y-139500000D02*
X133000000Y-139500000D01*
X149000000Y-132000000D02*
X149000000Y-129000000D01*
D11*
X139750000Y-82000000D02*
X139750000Y-82500000D01*
D10*
X147500000Y-86500000D02*
X115560660Y-86500000D01*
X115500000Y-86500000D02*
G75*
G03*
X114000000Y-88000000I0J-1500000D01*
G01*
X149000000Y-96000000D02*
X149000000Y-90000000D01*
D11*
X139750000Y-81500000D02*
X139000000Y-83000000D01*
X140500000Y-83000000D02*
X139750000Y-81500000D01*
D10*
X149000000Y-138000000D02*
X149000000Y-137000000D01*
X147500000Y-139500000D02*
G75*
G03*
X149000000Y-138000000I0J1500000D01*
G01*
X114000000Y-111500000D02*
X114000000Y-131500000D01*
X114000000Y-138000000D02*
G75*
G03*
X115500000Y-139500000I1500000J0D01*
G01*
D11*
X139000000Y-83000000D02*
X140500000Y-83000000D01*
D10*
X149000000Y-88000000D02*
G75*
G03*
X147500000Y-86500000I-1500000J0D01*
G01*
D12*
X138202857Y-82881785D02*
X138452857Y-82524642D01*
X138631428Y-82881785D02*
X138631428Y-82131785D01*
X138345714Y-82131785D01*
X138274285Y-82167500D01*
X138238571Y-82203214D01*
X138202857Y-82274642D01*
X138202857Y-82381785D01*
X138238571Y-82453214D01*
X138274285Y-82488928D01*
X138345714Y-82524642D01*
X138631428Y-82524642D01*
X137595714Y-82846071D02*
X137667142Y-82881785D01*
X137810000Y-82881785D01*
X137881428Y-82846071D01*
X137917142Y-82774642D01*
X137917142Y-82488928D01*
X137881428Y-82417500D01*
X137810000Y-82381785D01*
X137667142Y-82381785D01*
X137595714Y-82417500D01*
X137560000Y-82488928D01*
X137560000Y-82560357D01*
X137917142Y-82631785D01*
X137310000Y-82381785D02*
X137131428Y-82881785D01*
X136952857Y-82381785D01*
X136381428Y-82846071D02*
X136452857Y-82881785D01*
X136595714Y-82881785D01*
X136667142Y-82846071D01*
X136702857Y-82774642D01*
X136702857Y-82488928D01*
X136667142Y-82417500D01*
X136595714Y-82381785D01*
X136452857Y-82381785D01*
X136381428Y-82417500D01*
X136345714Y-82488928D01*
X136345714Y-82560357D01*
X136702857Y-82631785D01*
X136024285Y-82881785D02*
X136024285Y-82381785D01*
X136024285Y-82524642D02*
X135988571Y-82453214D01*
X135952857Y-82417500D01*
X135881428Y-82381785D01*
X135810000Y-82381785D01*
X135595714Y-82846071D02*
X135524285Y-82881785D01*
X135381428Y-82881785D01*
X135310000Y-82846071D01*
X135274285Y-82774642D01*
X135274285Y-82738928D01*
X135310000Y-82667500D01*
X135381428Y-82631785D01*
X135488571Y-82631785D01*
X135560000Y-82596071D01*
X135595714Y-82524642D01*
X135595714Y-82488928D01*
X135560000Y-82417500D01*
X135488571Y-82381785D01*
X135381428Y-82381785D01*
X135310000Y-82417500D01*
X134667142Y-82846071D02*
X134738571Y-82881785D01*
X134881428Y-82881785D01*
X134952857Y-82846071D01*
X134988571Y-82774642D01*
X134988571Y-82488928D01*
X134952857Y-82417500D01*
X134881428Y-82381785D01*
X134738571Y-82381785D01*
X134667142Y-82417500D01*
X134631428Y-82488928D01*
X134631428Y-82560357D01*
X134988571Y-82631785D01*
X133738571Y-82381785D02*
X133738571Y-83131785D01*
X133738571Y-82417500D02*
X133667142Y-82381785D01*
X133524285Y-82381785D01*
X133452857Y-82417500D01*
X133417142Y-82453214D01*
X133381428Y-82524642D01*
X133381428Y-82738928D01*
X133417142Y-82810357D01*
X133452857Y-82846071D01*
X133524285Y-82881785D01*
X133667142Y-82881785D01*
X133738571Y-82846071D01*
X132952857Y-82881785D02*
X133024285Y-82846071D01*
X133060000Y-82810357D01*
X133095714Y-82738928D01*
X133095714Y-82524642D01*
X133060000Y-82453214D01*
X133024285Y-82417500D01*
X132952857Y-82381785D01*
X132845714Y-82381785D01*
X132774285Y-82417500D01*
X132738571Y-82453214D01*
X132702857Y-82524642D01*
X132702857Y-82738928D01*
X132738571Y-82810357D01*
X132774285Y-82846071D01*
X132845714Y-82881785D01*
X132952857Y-82881785D01*
X132274285Y-82881785D02*
X132345714Y-82846071D01*
X132381428Y-82774642D01*
X132381428Y-82131785D01*
X131667142Y-82881785D02*
X131667142Y-82488928D01*
X131702857Y-82417500D01*
X131774285Y-82381785D01*
X131917142Y-82381785D01*
X131988571Y-82417500D01*
X131667142Y-82846071D02*
X131738571Y-82881785D01*
X131917142Y-82881785D01*
X131988571Y-82846071D01*
X132024285Y-82774642D01*
X132024285Y-82703214D01*
X131988571Y-82631785D01*
X131917142Y-82596071D01*
X131738571Y-82596071D01*
X131667142Y-82560357D01*
X131310000Y-82881785D02*
X131310000Y-82381785D01*
X131310000Y-82524642D02*
X131274285Y-82453214D01*
X131238571Y-82417500D01*
X131167142Y-82381785D01*
X131095714Y-82381785D01*
X130845714Y-82881785D02*
X130845714Y-82381785D01*
X130845714Y-82131785D02*
X130881428Y-82167500D01*
X130845714Y-82203214D01*
X130810000Y-82167500D01*
X130845714Y-82131785D01*
X130845714Y-82203214D01*
X130595714Y-82381785D02*
X130310000Y-82381785D01*
X130488571Y-82131785D02*
X130488571Y-82774642D01*
X130452857Y-82846071D01*
X130381428Y-82881785D01*
X130310000Y-82881785D01*
X130131428Y-82381785D02*
X129952857Y-82881785D01*
X129774285Y-82381785D02*
X129952857Y-82881785D01*
X130024285Y-83060357D01*
X130060000Y-83096071D01*
X130131428Y-83131785D01*
X138702857Y-83589285D02*
X138560000Y-84089285D01*
X138417142Y-83732142D01*
X138274285Y-84089285D01*
X138131428Y-83589285D01*
X137845714Y-84089285D02*
X137845714Y-83589285D01*
X137845714Y-83339285D02*
X137881428Y-83375000D01*
X137845714Y-83410714D01*
X137810000Y-83375000D01*
X137845714Y-83339285D01*
X137845714Y-83410714D01*
X137381428Y-84089285D02*
X137452857Y-84053571D01*
X137488571Y-83982142D01*
X137488571Y-83339285D01*
X136988571Y-84089285D02*
X137060000Y-84053571D01*
X137095714Y-83982142D01*
X137095714Y-83339285D01*
X135810000Y-84089285D02*
X135810000Y-83339285D01*
X135810000Y-84053571D02*
X135881428Y-84089285D01*
X136024285Y-84089285D01*
X136095714Y-84053571D01*
X136131428Y-84017857D01*
X136167142Y-83946428D01*
X136167142Y-83732142D01*
X136131428Y-83660714D01*
X136095714Y-83625000D01*
X136024285Y-83589285D01*
X135881428Y-83589285D01*
X135810000Y-83625000D01*
X135131428Y-84089285D02*
X135131428Y-83696428D01*
X135167142Y-83625000D01*
X135238571Y-83589285D01*
X135381428Y-83589285D01*
X135452857Y-83625000D01*
X135131428Y-84053571D02*
X135202857Y-84089285D01*
X135381428Y-84089285D01*
X135452857Y-84053571D01*
X135488571Y-83982142D01*
X135488571Y-83910714D01*
X135452857Y-83839285D01*
X135381428Y-83803571D01*
X135202857Y-83803571D01*
X135131428Y-83767857D01*
X134774285Y-84089285D02*
X134774285Y-83589285D01*
X134774285Y-83660714D02*
X134738571Y-83625000D01*
X134667142Y-83589285D01*
X134560000Y-83589285D01*
X134488571Y-83625000D01*
X134452857Y-83696428D01*
X134452857Y-84089285D01*
X134452857Y-83696428D02*
X134417142Y-83625000D01*
X134345714Y-83589285D01*
X134238571Y-83589285D01*
X134167142Y-83625000D01*
X134131428Y-83696428D01*
X134131428Y-84089285D01*
X133452857Y-84089285D02*
X133452857Y-83696428D01*
X133488571Y-83625000D01*
X133560000Y-83589285D01*
X133702857Y-83589285D01*
X133774285Y-83625000D01*
X133452857Y-84053571D02*
X133524285Y-84089285D01*
X133702857Y-84089285D01*
X133774285Y-84053571D01*
X133810000Y-83982142D01*
X133810000Y-83910714D01*
X133774285Y-83839285D01*
X133702857Y-83803571D01*
X133524285Y-83803571D01*
X133452857Y-83767857D01*
X132774285Y-83589285D02*
X132774285Y-84196428D01*
X132810000Y-84267857D01*
X132845714Y-84303571D01*
X132917142Y-84339285D01*
X133024285Y-84339285D01*
X133095714Y-84303571D01*
X132774285Y-84053571D02*
X132845714Y-84089285D01*
X132988571Y-84089285D01*
X133060000Y-84053571D01*
X133095714Y-84017857D01*
X133131428Y-83946428D01*
X133131428Y-83732142D01*
X133095714Y-83660714D01*
X133060000Y-83625000D01*
X132988571Y-83589285D01*
X132845714Y-83589285D01*
X132774285Y-83625000D01*
X132131428Y-84053571D02*
X132202857Y-84089285D01*
X132345714Y-84089285D01*
X132417142Y-84053571D01*
X132452857Y-83982142D01*
X132452857Y-83696428D01*
X132417142Y-83625000D01*
X132345714Y-83589285D01*
X132202857Y-83589285D01*
X132131428Y-83625000D01*
X132095714Y-83696428D01*
X132095714Y-83767857D01*
X132452857Y-83839285D01*
X131310000Y-83589285D02*
X131024285Y-83589285D01*
X131202857Y-83339285D02*
X131202857Y-83982142D01*
X131167142Y-84053571D01*
X131095714Y-84089285D01*
X131024285Y-84089285D01*
X130774285Y-84089285D02*
X130774285Y-83339285D01*
X130452857Y-84089285D02*
X130452857Y-83696428D01*
X130488571Y-83625000D01*
X130560000Y-83589285D01*
X130667142Y-83589285D01*
X130738571Y-83625000D01*
X130774285Y-83660714D01*
X129810000Y-84053571D02*
X129881428Y-84089285D01*
X130024285Y-84089285D01*
X130095714Y-84053571D01*
X130131428Y-83982142D01*
X130131428Y-83696428D01*
X130095714Y-83625000D01*
X130024285Y-83589285D01*
X129881428Y-83589285D01*
X129810000Y-83625000D01*
X129774285Y-83696428D01*
X129774285Y-83767857D01*
X130131428Y-83839285D01*
X138310000Y-85296785D02*
X138310000Y-84546785D01*
X138310000Y-85261071D02*
X138381428Y-85296785D01*
X138524285Y-85296785D01*
X138595714Y-85261071D01*
X138631428Y-85225357D01*
X138667142Y-85153928D01*
X138667142Y-84939642D01*
X138631428Y-84868214D01*
X138595714Y-84832500D01*
X138524285Y-84796785D01*
X138381428Y-84796785D01*
X138310000Y-84832500D01*
X137667142Y-85261071D02*
X137738571Y-85296785D01*
X137881428Y-85296785D01*
X137952857Y-85261071D01*
X137988571Y-85189642D01*
X137988571Y-84903928D01*
X137952857Y-84832500D01*
X137881428Y-84796785D01*
X137738571Y-84796785D01*
X137667142Y-84832500D01*
X137631428Y-84903928D01*
X137631428Y-84975357D01*
X137988571Y-85046785D01*
X137381428Y-84796785D02*
X137202857Y-85296785D01*
X137024285Y-84796785D01*
X136738571Y-85296785D02*
X136738571Y-84796785D01*
X136738571Y-84546785D02*
X136774285Y-84582500D01*
X136738571Y-84618214D01*
X136702857Y-84582500D01*
X136738571Y-84546785D01*
X136738571Y-84618214D01*
X136060000Y-85261071D02*
X136131428Y-85296785D01*
X136274285Y-85296785D01*
X136345714Y-85261071D01*
X136381428Y-85225357D01*
X136417142Y-85153928D01*
X136417142Y-84939642D01*
X136381428Y-84868214D01*
X136345714Y-84832500D01*
X136274285Y-84796785D01*
X136131428Y-84796785D01*
X136060000Y-84832500D01*
X135452857Y-85261071D02*
X135524285Y-85296785D01*
X135667142Y-85296785D01*
X135738571Y-85261071D01*
X135774285Y-85189642D01*
X135774285Y-84903928D01*
X135738571Y-84832500D01*
X135667142Y-84796785D01*
X135524285Y-84796785D01*
X135452857Y-84832500D01*
X135417142Y-84903928D01*
X135417142Y-84975357D01*
X135774285Y-85046785D01*
D11*
X29007261Y-108652380D02*
X28673928Y-109652380D01*
X28340595Y-108652380D01*
X26721547Y-109652380D02*
X27292976Y-109652380D01*
X27007261Y-109652380D02*
X27007261Y-108652380D01*
X27102500Y-108795238D01*
X27197738Y-108890476D01*
X27292976Y-108938095D01*
X26292976Y-109557142D02*
X26245357Y-109604761D01*
X26292976Y-109652380D01*
X26340595Y-109604761D01*
X26292976Y-109557142D01*
X26292976Y-109652380D01*
X25626309Y-108652380D02*
X25531071Y-108652380D01*
X25435833Y-108700000D01*
X25388214Y-108747619D01*
X25340595Y-108842857D01*
X25292976Y-109033333D01*
X25292976Y-109271428D01*
X25340595Y-109461904D01*
X25388214Y-109557142D01*
X25435833Y-109604761D01*
X25531071Y-109652380D01*
X25626309Y-109652380D01*
X25721547Y-109604761D01*
X25769166Y-109557142D01*
X25816785Y-109461904D01*
X25864404Y-109271428D01*
X25864404Y-109033333D01*
X25816785Y-108842857D01*
X25769166Y-108747619D01*
X25721547Y-108700000D01*
X25626309Y-108652380D01*
X24102500Y-109271428D02*
X23340595Y-109271428D01*
X22150119Y-108747619D02*
X22102500Y-108700000D01*
X22007261Y-108652380D01*
X21769166Y-108652380D01*
X21673928Y-108700000D01*
X21626309Y-108747619D01*
X21578690Y-108842857D01*
X21578690Y-108938095D01*
X21626309Y-109080952D01*
X22197738Y-109652380D01*
X21578690Y-109652380D01*
X20959642Y-108652380D02*
X20864404Y-108652380D01*
X20769166Y-108700000D01*
X20721547Y-108747619D01*
X20673928Y-108842857D01*
X20626309Y-109033333D01*
X20626309Y-109271428D01*
X20673928Y-109461904D01*
X20721547Y-109557142D01*
X20769166Y-109604761D01*
X20864404Y-109652380D01*
X20959642Y-109652380D01*
X21054880Y-109604761D01*
X21102500Y-109557142D01*
X21150119Y-109461904D01*
X21197738Y-109271428D01*
X21197738Y-109033333D01*
X21150119Y-108842857D01*
X21102500Y-108747619D01*
X21054880Y-108700000D01*
X20959642Y-108652380D01*
X20245357Y-108747619D02*
X20197738Y-108700000D01*
X20102500Y-108652380D01*
X19864404Y-108652380D01*
X19769166Y-108700000D01*
X19721547Y-108747619D01*
X19673928Y-108842857D01*
X19673928Y-108938095D01*
X19721547Y-109080952D01*
X20292976Y-109652380D01*
X19673928Y-109652380D01*
X18769166Y-108652380D02*
X19245357Y-108652380D01*
X19292976Y-109128571D01*
X19245357Y-109080952D01*
X19150119Y-109033333D01*
X18912023Y-109033333D01*
X18816785Y-109080952D01*
X18769166Y-109128571D01*
X18721547Y-109223809D01*
X18721547Y-109461904D01*
X18769166Y-109557142D01*
X18816785Y-109604761D01*
X18912023Y-109652380D01*
X19150119Y-109652380D01*
X19245357Y-109604761D01*
X19292976Y-109557142D01*
D13*
X138579821Y-80826190D02*
X138270297Y-80826190D01*
X138436964Y-81016666D01*
X138365535Y-81016666D01*
X138317916Y-81040476D01*
X138294107Y-81064285D01*
X138270297Y-81111904D01*
X138270297Y-81230952D01*
X138294107Y-81278571D01*
X138317916Y-81302380D01*
X138365535Y-81326190D01*
X138508392Y-81326190D01*
X138556011Y-81302380D01*
X138579821Y-81278571D01*
X138056011Y-81278571D02*
X138032202Y-81302380D01*
X138056011Y-81326190D01*
X138079821Y-81302380D01*
X138056011Y-81278571D01*
X138056011Y-81326190D01*
X137865535Y-80826190D02*
X137532202Y-80826190D01*
X137746488Y-81326190D01*
X137413154Y-80826190D02*
X137246488Y-81326190D01*
X137079821Y-80826190D01*
X136294107Y-81326190D02*
X136532202Y-81326190D01*
X136532202Y-80826190D01*
X136127440Y-81326190D02*
X136127440Y-80992857D01*
X136127440Y-80826190D02*
X136151250Y-80850000D01*
X136127440Y-80873809D01*
X136103630Y-80850000D01*
X136127440Y-80826190D01*
X136127440Y-80873809D01*
X135889345Y-81326190D02*
X135889345Y-80992857D01*
X135889345Y-80826190D02*
X135913154Y-80850000D01*
X135889345Y-80873809D01*
X135865535Y-80850000D01*
X135889345Y-80826190D01*
X135889345Y-80873809D01*
X135579821Y-81326190D02*
X135627440Y-81302380D01*
X135651250Y-81278571D01*
X135675059Y-81230952D01*
X135675059Y-81088095D01*
X135651250Y-81040476D01*
X135627440Y-81016666D01*
X135579821Y-80992857D01*
X135508392Y-80992857D01*
X135460773Y-81016666D01*
X135436964Y-81040476D01*
X135413154Y-81088095D01*
X135413154Y-81230952D01*
X135436964Y-81278571D01*
X135460773Y-81302380D01*
X135508392Y-81326190D01*
X135579821Y-81326190D01*
X135198869Y-80992857D02*
X135198869Y-81326190D01*
X135198869Y-81040476D02*
X135175059Y-81016666D01*
X135127440Y-80992857D01*
X135056011Y-80992857D01*
X135008392Y-81016666D01*
X134984583Y-81064285D01*
X134984583Y-81326190D01*
X134389345Y-80802380D02*
X134817916Y-81445238D01*
X133984583Y-81326190D02*
X134222678Y-81326190D01*
X134222678Y-80826190D01*
X133817916Y-81326190D02*
X133817916Y-80992857D01*
X133817916Y-80826190D02*
X133841726Y-80850000D01*
X133817916Y-80873809D01*
X133794107Y-80850000D01*
X133817916Y-80826190D01*
X133817916Y-80873809D01*
X133579821Y-80992857D02*
X133579821Y-81492857D01*
X133579821Y-81016666D02*
X133532202Y-80992857D01*
X133436964Y-80992857D01*
X133389345Y-81016666D01*
X133365535Y-81040476D01*
X133341726Y-81088095D01*
X133341726Y-81230952D01*
X133365535Y-81278571D01*
X133389345Y-81302380D01*
X133436964Y-81326190D01*
X133532202Y-81326190D01*
X133579821Y-81302380D01*
X133056011Y-81326190D02*
X133103630Y-81302380D01*
X133127440Y-81278571D01*
X133151250Y-81230952D01*
X133151250Y-81088095D01*
X133127440Y-81040476D01*
X133103630Y-81016666D01*
X133056011Y-80992857D01*
X132984583Y-80992857D01*
X132936964Y-81016666D01*
X132913154Y-81040476D01*
X132889345Y-81088095D01*
X132889345Y-81230952D01*
X132913154Y-81278571D01*
X132936964Y-81302380D01*
X132984583Y-81326190D01*
X133056011Y-81326190D01*
X132603630Y-81326190D02*
X132651250Y-81302380D01*
X132675059Y-81254761D01*
X132675059Y-80826190D01*
X132460773Y-80992857D02*
X132341726Y-81326190D01*
X132222678Y-80992857D02*
X132341726Y-81326190D01*
X132389345Y-81445238D01*
X132413154Y-81469047D01*
X132460773Y-81492857D01*
D14*
X147958357Y-87942857D02*
X147844071Y-87980952D01*
X147805976Y-88019047D01*
X147767880Y-88095238D01*
X147767880Y-88209523D01*
X147805976Y-88285714D01*
X147844071Y-88323809D01*
X147920261Y-88361904D01*
X148225023Y-88361904D01*
X148225023Y-87561904D01*
X147958357Y-87561904D01*
X147882166Y-87600000D01*
X147844071Y-87638095D01*
X147805976Y-87714285D01*
X147805976Y-87790476D01*
X147844071Y-87866666D01*
X147882166Y-87904761D01*
X147958357Y-87942857D01*
X148225023Y-87942857D01*
X147082166Y-88361904D02*
X147082166Y-87942857D01*
X147120261Y-87866666D01*
X147196452Y-87828571D01*
X147348833Y-87828571D01*
X147425023Y-87866666D01*
X147082166Y-88323809D02*
X147158357Y-88361904D01*
X147348833Y-88361904D01*
X147425023Y-88323809D01*
X147463119Y-88247619D01*
X147463119Y-88171428D01*
X147425023Y-88095238D01*
X147348833Y-88057142D01*
X147158357Y-88057142D01*
X147082166Y-88019047D01*
X146815500Y-87828571D02*
X146510738Y-87828571D01*
X146701214Y-87561904D02*
X146701214Y-88247619D01*
X146663119Y-88323809D01*
X146586928Y-88361904D01*
X146510738Y-88361904D01*
X146358357Y-87828571D02*
X146053595Y-87828571D01*
X146244071Y-87561904D02*
X146244071Y-88247619D01*
X146205976Y-88323809D01*
X146129785Y-88361904D01*
X146053595Y-88361904D01*
X145482166Y-88323809D02*
X145558357Y-88361904D01*
X145710738Y-88361904D01*
X145786928Y-88323809D01*
X145825023Y-88247619D01*
X145825023Y-87942857D01*
X145786928Y-87866666D01*
X145710738Y-87828571D01*
X145558357Y-87828571D01*
X145482166Y-87866666D01*
X145444071Y-87942857D01*
X145444071Y-88019047D01*
X145825023Y-88095238D01*
X145101214Y-88361904D02*
X145101214Y-87828571D01*
X145101214Y-87980952D02*
X145063119Y-87904761D01*
X145025023Y-87866666D01*
X144948833Y-87828571D01*
X144872642Y-87828571D01*
X144682166Y-87828571D02*
X144491690Y-88361904D01*
X144301214Y-87828571D02*
X144491690Y-88361904D01*
X144567880Y-88552380D01*
X144605976Y-88590476D01*
X144682166Y-88628571D01*
X143272642Y-88361904D02*
X143348833Y-88323809D01*
X143386928Y-88285714D01*
X143425023Y-88209523D01*
X143425023Y-87980952D01*
X143386928Y-87904761D01*
X143348833Y-87866666D01*
X143272642Y-87828571D01*
X143158357Y-87828571D01*
X143082166Y-87866666D01*
X143044071Y-87904761D01*
X143005976Y-87980952D01*
X143005976Y-88209523D01*
X143044071Y-88285714D01*
X143082166Y-88323809D01*
X143158357Y-88361904D01*
X143272642Y-88361904D01*
X142320261Y-87828571D02*
X142320261Y-88361904D01*
X142663119Y-87828571D02*
X142663119Y-88247619D01*
X142625023Y-88323809D01*
X142548833Y-88361904D01*
X142434547Y-88361904D01*
X142358357Y-88323809D01*
X142320261Y-88285714D01*
X142053595Y-87828571D02*
X141748833Y-87828571D01*
X141939309Y-87561904D02*
X141939309Y-88247619D01*
X141901214Y-88323809D01*
X141825023Y-88361904D01*
X141748833Y-88361904D01*
X141367880Y-88361904D02*
X141444071Y-88323809D01*
X141482166Y-88247619D01*
X141482166Y-87561904D01*
X141063119Y-88361904D02*
X141063119Y-87828571D01*
X141063119Y-87561904D02*
X141101214Y-87600000D01*
X141063119Y-87638095D01*
X141025023Y-87600000D01*
X141063119Y-87561904D01*
X141063119Y-87638095D01*
X140682166Y-87828571D02*
X140682166Y-88361904D01*
X140682166Y-87904761D02*
X140644071Y-87866666D01*
X140567880Y-87828571D01*
X140453595Y-87828571D01*
X140377404Y-87866666D01*
X140339309Y-87942857D01*
X140339309Y-88361904D01*
X139653595Y-88323809D02*
X139729785Y-88361904D01*
X139882166Y-88361904D01*
X139958357Y-88323809D01*
X139996452Y-88247619D01*
X139996452Y-87942857D01*
X139958357Y-87866666D01*
X139882166Y-87828571D01*
X139729785Y-87828571D01*
X139653595Y-87866666D01*
X139615500Y-87942857D01*
X139615500Y-88019047D01*
X139996452Y-88095238D01*
D15*
X150642857Y-83736190D02*
X150642857Y-85260000D01*
X151404761Y-84498095D02*
X149880952Y-84498095D01*
D11*
X138331071Y-79928571D02*
X138188214Y-79976190D01*
X138140595Y-80023809D01*
X138092976Y-80119047D01*
X138092976Y-80261904D01*
X138140595Y-80357142D01*
X138188214Y-80404761D01*
X138283452Y-80452380D01*
X138664404Y-80452380D01*
X138664404Y-79452380D01*
X138331071Y-79452380D01*
X138235833Y-79500000D01*
X138188214Y-79547619D01*
X138140595Y-79642857D01*
X138140595Y-79738095D01*
X138188214Y-79833333D01*
X138235833Y-79880952D01*
X138331071Y-79928571D01*
X138664404Y-79928571D01*
X137235833Y-80452380D02*
X137235833Y-79928571D01*
X137283452Y-79833333D01*
X137378690Y-79785714D01*
X137569166Y-79785714D01*
X137664404Y-79833333D01*
X137235833Y-80404761D02*
X137331071Y-80452380D01*
X137569166Y-80452380D01*
X137664404Y-80404761D01*
X137712023Y-80309523D01*
X137712023Y-80214285D01*
X137664404Y-80119047D01*
X137569166Y-80071428D01*
X137331071Y-80071428D01*
X137235833Y-80023809D01*
X136902500Y-79785714D02*
X136521547Y-79785714D01*
X136759642Y-79452380D02*
X136759642Y-80309523D01*
X136712023Y-80404761D01*
X136616785Y-80452380D01*
X136521547Y-80452380D01*
X136331071Y-79785714D02*
X135950119Y-79785714D01*
X136188214Y-79452380D02*
X136188214Y-80309523D01*
X136140595Y-80404761D01*
X136045357Y-80452380D01*
X135950119Y-80452380D01*
X135235833Y-80404761D02*
X135331071Y-80452380D01*
X135521547Y-80452380D01*
X135616785Y-80404761D01*
X135664404Y-80309523D01*
X135664404Y-79928571D01*
X135616785Y-79833333D01*
X135521547Y-79785714D01*
X135331071Y-79785714D01*
X135235833Y-79833333D01*
X135188214Y-79928571D01*
X135188214Y-80023809D01*
X135664404Y-80119047D01*
X134759642Y-80452380D02*
X134759642Y-79785714D01*
X134759642Y-79976190D02*
X134712023Y-79880952D01*
X134664404Y-79833333D01*
X134569166Y-79785714D01*
X134473928Y-79785714D01*
X134235833Y-79785714D02*
X133997738Y-80452380D01*
X133759642Y-79785714D02*
X133997738Y-80452380D01*
X134092976Y-80690476D01*
X134140595Y-80738095D01*
X134235833Y-80785714D01*
D16*
%TO.C,J3*%
X146857500Y-80400000D02*
X146857500Y-81400000D01*
X145257500Y-80400000D02*
X146857500Y-80400000D01*
X146857500Y-84000000D02*
X145257500Y-84000000D01*
X142897500Y-84840000D02*
X142897500Y-84560000D01*
X145257500Y-84000000D02*
X145257500Y-85000000D01*
X142897500Y-80840000D02*
X142897500Y-80560000D01*
X145257500Y-81400000D02*
X145257500Y-80400000D01*
X142897500Y-80840000D02*
X141682500Y-80840000D01*
X149117500Y-82200000D02*
X144757500Y-82200000D01*
X144757500Y-82200000D02*
X144757500Y-83200000D01*
X142897500Y-85760000D02*
X142897500Y-84840000D01*
X141297500Y-85760000D02*
X141297500Y-84840000D01*
X146857500Y-80900000D02*
X149117500Y-80900000D01*
X141297500Y-84840000D02*
X142897500Y-84840000D01*
X146857500Y-81400000D02*
X149117500Y-81400000D01*
X149117500Y-85760000D02*
X141297500Y-85760000D01*
X142897500Y-79640000D02*
X142897500Y-80560000D01*
X144757500Y-83200000D02*
X149117500Y-83200000D01*
X146857500Y-81400000D02*
X145257500Y-81400000D01*
X141297500Y-80560000D02*
X141297500Y-79640000D01*
X149117500Y-79640000D02*
X149117500Y-85760000D01*
X142897500Y-80560000D02*
X141297500Y-80560000D01*
X146857500Y-85000000D02*
X146857500Y-84000000D01*
X145257500Y-85000000D02*
X146857500Y-85000000D01*
X141297500Y-79640000D02*
X149117500Y-79640000D01*
%TD*%
%LPC*%
D17*
%TO.C,SW11*%
X77000000Y-98000000D03*
X68000000Y-98000000D03*
D18*
X75000000Y-91750000D03*
X75000000Y-104250000D03*
X70000000Y-91750000D03*
X70000000Y-104250000D03*
%TD*%
%TO.C,SW26*%
X121250000Y-75250000D03*
X114750000Y-75250000D03*
X121250000Y-70750000D03*
X114750000Y-70750000D03*
%TD*%
D19*
%TO.C,D2*%
X117640000Y-126500000D03*
D20*
X118910000Y-126500000D03*
X120180000Y-126500000D03*
X121450000Y-126500000D03*
%TD*%
D17*
%TO.C,SW12*%
X85000000Y-93500000D03*
X85000000Y-102500000D03*
D18*
X91250000Y-100500000D03*
X78750000Y-100500000D03*
X91250000Y-95500000D03*
X78750000Y-95500000D03*
%TD*%
D17*
%TO.C,SW15*%
X44000000Y-110500000D03*
X35000000Y-110500000D03*
D18*
X42000000Y-104250000D03*
X42000000Y-116750000D03*
X37000000Y-104250000D03*
X37000000Y-116750000D03*
%TD*%
D17*
%TO.C,SW10*%
X60000000Y-102500000D03*
X60000000Y-93500000D03*
D18*
X66250000Y-100500000D03*
X53750000Y-100500000D03*
X66250000Y-95500000D03*
X53750000Y-95500000D03*
%TD*%
D21*
%TO.C,D1*%
X112500000Y-74270000D03*
D17*
X112500000Y-71730000D03*
%TD*%
%TO.C,SW21*%
X110000000Y-110500000D03*
X119000000Y-110500000D03*
D18*
X117000000Y-104250000D03*
X117000000Y-116750000D03*
X112000000Y-104250000D03*
X112000000Y-116750000D03*
%TD*%
D17*
%TO.C,SW6*%
X93000000Y-90000000D03*
X93000000Y-81000000D03*
D18*
X99250000Y-88000000D03*
X86750000Y-88000000D03*
X99250000Y-83000000D03*
X86750000Y-83000000D03*
%TD*%
D17*
%TO.C,SW14*%
X110000000Y-93500000D03*
X110000000Y-102500000D03*
D18*
X116250000Y-100500000D03*
X103750000Y-100500000D03*
X116250000Y-95500000D03*
X103750000Y-95500000D03*
%TD*%
D17*
%TO.C,SW2*%
X43000000Y-81000000D03*
X43000000Y-90000000D03*
D18*
X49250000Y-88000000D03*
X36750000Y-88000000D03*
X49250000Y-83000000D03*
X36750000Y-83000000D03*
%TD*%
D17*
%TO.C,SW17*%
X69000000Y-110500000D03*
X60000000Y-110500000D03*
D18*
X67000000Y-104250000D03*
X67000000Y-116750000D03*
X62000000Y-104250000D03*
X62000000Y-116750000D03*
%TD*%
D22*
%TO.C,RV3*%
X170000000Y-84030000D03*
X170000000Y-92030000D03*
D23*
X171400000Y-88030000D03*
D24*
X167000000Y-88030000D03*
D23*
X162600000Y-88030000D03*
D22*
X164000000Y-84030000D03*
X164000000Y-92030000D03*
D25*
X164500000Y-95030000D03*
X167000000Y-95030000D03*
X169500000Y-95030000D03*
%TD*%
D17*
%TO.C,SW13*%
X102000000Y-98000000D03*
X93000000Y-98000000D03*
D18*
X100000000Y-91750000D03*
X100000000Y-104250000D03*
X95000000Y-91750000D03*
X95000000Y-104250000D03*
%TD*%
%TO.C,SW24*%
X170250000Y-131750000D03*
X163750000Y-131750000D03*
X170250000Y-127250000D03*
X163750000Y-127250000D03*
%TD*%
D17*
%TO.C,SW18*%
X77000000Y-115000000D03*
X77000000Y-106000000D03*
D18*
X83250000Y-113000000D03*
X70750000Y-113000000D03*
X83250000Y-108000000D03*
X70750000Y-108000000D03*
%TD*%
D17*
%TO.C,SW16*%
X52000000Y-106000000D03*
X52000000Y-115000000D03*
D18*
X58250000Y-113000000D03*
X45750000Y-113000000D03*
X58250000Y-108000000D03*
X45750000Y-108000000D03*
%TD*%
D17*
%TO.C,SW20*%
X102000000Y-106000000D03*
X102000000Y-115000000D03*
D18*
X108250000Y-113000000D03*
X95750000Y-113000000D03*
X108250000Y-108000000D03*
X95750000Y-108000000D03*
%TD*%
D26*
%TO.C,J1*%
X135230000Y-92000000D03*
X137770000Y-92000000D03*
X137770000Y-94540000D03*
X135230000Y-94540000D03*
X137770000Y-89460000D03*
D27*
X136450000Y-93350000D03*
D26*
X135230000Y-89460000D03*
D27*
X136500000Y-90625000D03*
%TD*%
D23*
%TO.C,RV2*%
X162600000Y-103030000D03*
D22*
X170000000Y-107030000D03*
X170000000Y-99030000D03*
D24*
X167000000Y-103030000D03*
D22*
X164000000Y-99030000D03*
X164000000Y-107030000D03*
D23*
X171400000Y-103030000D03*
D25*
X164500000Y-110030000D03*
X167000000Y-110030000D03*
X169500000Y-110030000D03*
%TD*%
D17*
%TO.C,SW4*%
X68000000Y-81000000D03*
X68000000Y-90000000D03*
D18*
X74250000Y-88000000D03*
X61750000Y-88000000D03*
X74250000Y-83000000D03*
X61750000Y-83000000D03*
%TD*%
%TO.C,SW22*%
X22750000Y-79750000D03*
X22750000Y-86250000D03*
X18250000Y-79750000D03*
X18250000Y-86250000D03*
%TD*%
D26*
%TO.C,J4*%
X135230000Y-127460000D03*
D27*
X136500000Y-128625000D03*
D26*
X137770000Y-127460000D03*
X137770000Y-132540000D03*
X137770000Y-130000000D03*
D27*
X136450000Y-131350000D03*
D26*
X135230000Y-132540000D03*
X135230000Y-130000000D03*
%TD*%
D17*
%TO.C,SW5*%
X76000000Y-85500000D03*
X85000000Y-85500000D03*
D18*
X83000000Y-79250000D03*
X83000000Y-91750000D03*
X78000000Y-79250000D03*
X78000000Y-91750000D03*
%TD*%
D17*
%TO.C,SW19*%
X85000000Y-110500000D03*
X94000000Y-110500000D03*
D18*
X92000000Y-104250000D03*
X92000000Y-116750000D03*
X87000000Y-104250000D03*
X87000000Y-116750000D03*
%TD*%
D17*
%TO.C,SW9*%
X43000000Y-98000000D03*
X52000000Y-98000000D03*
D18*
X50000000Y-91750000D03*
X50000000Y-104250000D03*
X45000000Y-91750000D03*
X45000000Y-104250000D03*
%TD*%
D23*
%TO.C,RV1*%
X171400000Y-118000000D03*
D22*
X170000000Y-122000000D03*
X164000000Y-114000000D03*
D24*
X167000000Y-118000000D03*
D22*
X170000000Y-114000000D03*
X164000000Y-122000000D03*
D23*
X162600000Y-118000000D03*
D25*
X164500000Y-125000000D03*
X167000000Y-125000000D03*
X169500000Y-125000000D03*
%TD*%
D28*
%TO.C,U1*%
X144130000Y-148375000D03*
X144130000Y-145835000D03*
X144130000Y-143295000D03*
X144130000Y-140755000D03*
X144130000Y-138215000D03*
X144130000Y-135675000D03*
X144130000Y-133135000D03*
X144130000Y-130595000D03*
X144130000Y-128055000D03*
X144130000Y-125515000D03*
X144130000Y-122975000D03*
X144130000Y-120435000D03*
X144130000Y-117895000D03*
X144130000Y-115355000D03*
X159370000Y-115355000D03*
X159370000Y-117895000D03*
X159370000Y-120435000D03*
X159370000Y-122975000D03*
X159370000Y-125515000D03*
X159370000Y-128055000D03*
X159370000Y-130595000D03*
X159370000Y-133135000D03*
X159370000Y-135675000D03*
X159370000Y-138215000D03*
X159370000Y-140755000D03*
X159370000Y-143295000D03*
X159370000Y-145835000D03*
X159370000Y-148375000D03*
X156830000Y-145835000D03*
%TD*%
D17*
%TO.C,SW7*%
X110000000Y-85500000D03*
X101000000Y-85500000D03*
D18*
X108000000Y-79250000D03*
X108000000Y-91750000D03*
X103000000Y-79250000D03*
X103000000Y-91750000D03*
%TD*%
D17*
%TO.C,SW3*%
X51000000Y-85500000D03*
X60000000Y-85500000D03*
D18*
X58000000Y-79250000D03*
X58000000Y-91750000D03*
X53000000Y-79250000D03*
X53000000Y-91750000D03*
%TD*%
D29*
%TO.C,J2*%
X114738835Y-134196699D03*
X112971068Y-132428932D03*
X111203301Y-130661165D03*
D30*
X105900000Y-132428932D03*
X107667767Y-134196699D03*
D31*
X105900000Y-139500000D03*
D32*
X112971068Y-139500000D03*
X111203301Y-137732233D03*
%TD*%
D17*
%TO.C,SW1*%
X35000000Y-85500000D03*
X26000000Y-85500000D03*
D18*
X33000000Y-79250000D03*
X33000000Y-91750000D03*
X28000000Y-79250000D03*
X28000000Y-91750000D03*
%TD*%
%TO.C,SW25*%
X163750000Y-134250000D03*
X170250000Y-134250000D03*
X163750000Y-138750000D03*
X170250000Y-138750000D03*
%TD*%
D17*
%TO.C,SW8*%
X35000000Y-93500000D03*
X35000000Y-102500000D03*
D18*
X41250000Y-100500000D03*
X28750000Y-100500000D03*
X41250000Y-95500000D03*
X28750000Y-95500000D03*
%TD*%
D33*
%TO.C,J3*%
X142757500Y-81700000D03*
D34*
X142757500Y-83700000D03*
%TD*%
M02*
