%TF.GenerationSoftware,KiCad,Pcbnew,(6.0.10-0)*%
%TF.CreationDate,2025-02-17T18:54:13+01:00*%
%TF.ProjectId,touch_zone,746f7563-685f-47a6-9f6e-652e6b696361,rev?*%
%TF.SameCoordinates,Original*%
%TF.FileFunction,Profile,NP*%
%FSLAX46Y46*%
G04 Gerber Fmt 4.6, Leading zero omitted, Abs format (unit mm)*
G04 Created by KiCad (PCBNEW (6.0.10-0)) date 2025-02-17 18:54:13*
%MOMM*%
%LPD*%
G01*
G04 APERTURE LIST*
%TA.AperFunction,Profile*%
%ADD10C,0.100000*%
%TD*%
G04 APERTURE END LIST*
D10*
X86250000Y-42250000D02*
X84000000Y-42000000D01*
X86750000Y-42750000D02*
G75*
G03*
X86250000Y-42250000I-500000J0D01*
G01*
X86250000Y-27250000D02*
X84000000Y-27000000D01*
X84000000Y-18000000D02*
G75*
G03*
X83500000Y-17500000I-500000J0D01*
G01*
X86250000Y-52250000D02*
X84000000Y-52000000D01*
X86250000Y-49750000D02*
X84000000Y-50000000D01*
X84000000Y-82000000D02*
X84000000Y-84000000D01*
X71000000Y-16250000D02*
G75*
G03*
X70000000Y-17250000I0J-1000000D01*
G01*
X86750000Y-47750000D02*
G75*
G03*
X86250000Y-47250000I-500000J0D01*
G01*
X84000000Y-55000000D02*
X84000000Y-57000000D01*
X86250000Y-37250000D02*
X84000000Y-37000000D01*
X86250000Y-69750000D02*
G75*
G03*
X86750000Y-69250000I0J500000D01*
G01*
X84000000Y-30000000D02*
X84000000Y-32000000D01*
X86750000Y-77750000D02*
X86750000Y-79250000D01*
X86250000Y-39750000D02*
X84000000Y-40000000D01*
X86250000Y-77250000D02*
X84000000Y-77000000D01*
X84000000Y-35000000D02*
X84000000Y-37000000D01*
X86750000Y-32750000D02*
X86750000Y-34250000D01*
X86250000Y-74750000D02*
G75*
G03*
X86750000Y-74250000I0J500000D01*
G01*
X86750000Y-67750000D02*
X86750000Y-69250000D01*
X84000000Y-60000000D02*
X84000000Y-62000000D01*
X86750000Y-27750000D02*
G75*
G03*
X86250000Y-27250000I-500000J0D01*
G01*
X86250000Y-29750000D02*
G75*
G03*
X86750000Y-29250000I0J500000D01*
G01*
X86250000Y-54750000D02*
G75*
G03*
X86750000Y-54250000I0J500000D01*
G01*
X86750000Y-62750000D02*
G75*
G03*
X86250000Y-62250000I-500000J0D01*
G01*
X86250000Y-34750000D02*
X84000000Y-35000000D01*
X70000000Y-84750000D02*
X70000000Y-17250000D01*
X86750000Y-42750000D02*
X86750000Y-44250000D01*
X86250000Y-24750000D02*
X84000000Y-25000000D01*
X84000000Y-20000000D02*
X84000000Y-22000000D01*
X86250000Y-59750000D02*
X84000000Y-60000000D01*
X86750000Y-37750000D02*
X86750000Y-39250000D01*
X86750000Y-47750000D02*
X86750000Y-49250000D01*
X86750000Y-57750000D02*
X86750000Y-59250000D01*
X84000000Y-40000000D02*
X84000000Y-42000000D01*
X86250000Y-72250000D02*
X84000000Y-72000000D01*
X86750000Y-57750000D02*
G75*
G03*
X86250000Y-57250000I-500000J0D01*
G01*
X86750000Y-22750000D02*
G75*
G03*
X86250000Y-22250000I-500000J0D01*
G01*
X86250000Y-44750000D02*
G75*
G03*
X86750000Y-44250000I0J500000D01*
G01*
X84000000Y-50000000D02*
X84000000Y-52000000D01*
X86250000Y-22250000D02*
X84000000Y-22000000D01*
X86250000Y-34750000D02*
G75*
G03*
X86750000Y-34250000I0J500000D01*
G01*
X86750000Y-67750000D02*
G75*
G03*
X86250000Y-67250000I-500000J0D01*
G01*
X84000000Y-80000000D02*
X84000000Y-82000000D01*
X86750000Y-72750000D02*
X86750000Y-74250000D01*
X86750000Y-27750000D02*
X86750000Y-29250000D01*
X86250000Y-54750000D02*
X84000000Y-55000000D01*
X84000000Y-25000000D02*
X84000000Y-27000000D01*
X86750000Y-32750000D02*
G75*
G03*
X86250000Y-32250000I-500000J0D01*
G01*
X86750000Y-52750000D02*
G75*
G03*
X86250000Y-52250000I-500000J0D01*
G01*
X86250000Y-69750000D02*
X84000000Y-70000000D01*
X86750000Y-52750000D02*
X86750000Y-54250000D01*
X86250000Y-79750000D02*
G75*
G03*
X86750000Y-79250000I0J500000D01*
G01*
X84000000Y-18000000D02*
X84000000Y-20000000D01*
X86750000Y-62750000D02*
X86750000Y-64250000D01*
X71000000Y-16250000D02*
X83500000Y-17500000D01*
X83500000Y-84500000D02*
G75*
G03*
X84000000Y-84000000I0J500000D01*
G01*
X86250000Y-29750000D02*
X84000000Y-30000000D01*
X86250000Y-24750000D02*
G75*
G03*
X86750000Y-24250000I0J500000D01*
G01*
X86750000Y-22750000D02*
X86750000Y-24250000D01*
X86750000Y-72750000D02*
G75*
G03*
X86250000Y-72250000I-500000J0D01*
G01*
X86250000Y-59750000D02*
G75*
G03*
X86750000Y-59250000I0J500000D01*
G01*
X86250000Y-57250000D02*
X84000000Y-57000000D01*
X86750000Y-37750000D02*
G75*
G03*
X86250000Y-37250000I-500000J0D01*
G01*
X84000000Y-75000000D02*
X84000000Y-77000000D01*
X84000000Y-65000000D02*
X84000000Y-67000000D01*
X86250000Y-49750000D02*
G75*
G03*
X86750000Y-49250000I0J500000D01*
G01*
X83500000Y-84500000D02*
X71000000Y-85750000D01*
X86250000Y-39750000D02*
G75*
G03*
X86750000Y-39250000I0J500000D01*
G01*
X86750000Y-77750000D02*
G75*
G03*
X86250000Y-77250000I-500000J0D01*
G01*
X86250000Y-67250000D02*
X84000000Y-67000000D01*
X86250000Y-79750000D02*
X84000000Y-80000000D01*
X86250000Y-62250000D02*
X84000000Y-62000000D01*
X70000000Y-84750000D02*
G75*
G03*
X71000000Y-85750000I1000000J0D01*
G01*
X86250000Y-74750000D02*
X84000000Y-75000000D01*
X84000000Y-45000000D02*
X84000000Y-47000000D01*
X86250000Y-32250000D02*
X84000000Y-32000000D01*
X86250000Y-47250000D02*
X84000000Y-47000000D01*
X84000000Y-70000000D02*
X84000000Y-72000000D01*
X86250000Y-64750000D02*
X84000000Y-65000000D01*
X86250000Y-64750000D02*
G75*
G03*
X86750000Y-64250000I0J500000D01*
G01*
X86250000Y-44750000D02*
X84000000Y-45000000D01*
M02*
