  0
SECTION
  2
HEADER
  9
$ANGBASE
  50
0.0
  9
$ANGDIR
  70
1
  9
$MEASUREMENT
  70
1
  0
ENDSEC
  0
SECTION
  2
TABLES
  0
TABLE
  2
LTYPE
  70
4
  0
LTYPE
  5
40F
  2
CONTINUOUS
  70
0
  3
Solid line
  72
65
  73
0
  40
0.0
  0
LTYPE
  5
410
  2
DASHDOT
 70
0
  3
Dash Dot ____ _ ____ _
 72
65
 73
4
 40
2.0
 49
1.25
 49
-0.25
 49
0.25
 49
-0.25
  0
LTYPE
  5
411
  2
DASHED
 70
0
  3
Dashed __ __ __ __ __
 72
65
 73
2
 40
0.75
 49
0.5
 49
-0.25
  0
LTYPE
  5
43B
  2
DOTTED
 70
0
  3
Dotted .  .  .  .
 72
65
 73
2
 40
0.2
 49
0.0
 49
-0.2
  0
ENDTAB
  0
TABLE
  2
STYLE
  70
4
  0
STYLE
  2
KICAD
  70
0
  40
0
  41
1
  42
1
  50
0
  71
0
  3
isocp.shx
  0
STYLE
  2
KICADB
  70
0
  40
0
  41
1
  42
1
  50
0
  71
0
  3
isocp.shx
  0
STYLE
  2
KICADI
  70
0
  40
0
  41
1
  42
1
  50
15
  71
0
  3
isocp.shx
  0
STYLE
  2
KICADBI
  70
0
  40
0
  41
1
  42
1
  50
15
  71
0
  3
isocp.shx
  0
ENDTAB
  0
TABLE
  2
LAYER
  70
1
  0
LAYER
  2
BLACK
  70
0
  62
7
  6
CONTINUOUS
  0
ENDTAB
  0
ENDSEC
  0
SECTION
  2
ENTITIES
0
LINE
8
BLACK
6
CONTINUOUS
10
114
20
-135.5
11
114
21
-138
0
LINE
8
BLACK
6
CONTINUOUS
10
134
20
-139.5
11
147.5
21
-139.5
0
LINE
8
BLACK
6
CONTINUOUS
10
149
20
-125
11
149
21
-98
0
LINE
8
BLACK
6
CONTINUOUS
10
115.5
20
-139.5
11
124.5
21
-139.5
0
LINE
8
BLACK
6
CONTINUOUS
10
114
20
-88
11
113.939
21
-109.5
0
LINE
8
BLACK
6
CONTINUOUS
10
125.5
20
-139.5
11
133
21
-139.5
0
LINE
8
BLACK
6
CONTINUOUS
10
149
20
-132
11
149
21
-129
0
LINE
8
BLACK
6
CONTINUOUS
10
139.75
20
-82
11
139.75
21
-82.5
0
LINE
8
BLACK
6
CONTINUOUS
10
147.5
20
-86.5
11
115.561
21
-86.5
0
ARC
8
BLACK
10
115.5
20
-88
40
1.5
50
90
51
180
0
LINE
8
BLACK
6
CONTINUOUS
10
149
20
-96
11
149
21
-90
0
LINE
8
BLACK
6
CONTINUOUS
10
139.75
20
-81.5
11
139
21
-83
0
LINE
8
BLACK
6
CONTINUOUS
10
140.5
20
-83
11
139.75
21
-81.5
0
LINE
8
BLACK
6
CONTINUOUS
10
149
20
-138
11
149
21
-137
0
ARC
8
BLACK
10
147.5
20
-138
40
1.5
50
-90
51
-0
0
LINE
8
BLACK
6
CONTINUOUS
10
114
20
-111.5
11
114
21
-131.5
0
ARC
8
BLACK
10
115.5
20
-138
40
1.5
50
-180
51
-90
0
LINE
8
BLACK
6
CONTINUOUS
10
139
20
-83
11
140.5
21
-83
0
ARC
8
BLACK
10
147.5
20
-88
40
1.5
50
-0
51
90
0
LINE
8
BLACK
6
CONTINUOUS
10
138.203
20
-82.8818
11
138.453
21
-82.5246
0
LINE
8
BLACK
6
CONTINUOUS
10
138.631
20
-82.8818
11
138.631
21
-82.1318
0
LINE
8
BLACK
6
CONTINUOUS
10
138.631
20
-82.1318
11
138.346
21
-82.1318
0
LINE
8
BLACK
6
CONTINUOUS
10
138.346
20
-82.1318
11
138.274
21
-82.1675
0
LINE
8
BLACK
6
CONTINUOUS
10
138.274
20
-82.1675
11
138.239
21
-82.2032
0
LINE
8
BLACK
6
CONTINUOUS
10
138.239
20
-82.2032
11
138.203
21
-82.2746
0
LINE
8
BLACK
6
CONTINUOUS
10
138.203
20
-82.2746
11
138.203
21
-82.3818
0
LINE
8
BLACK
6
CONTINUOUS
10
138.203
20
-82.3818
11
138.239
21
-82.4532
0
LINE
8
BLACK
6
CONTINUOUS
10
138.239
20
-82.4532
11
138.274
21
-82.4889
0
LINE
8
BLACK
6
CONTINUOUS
10
138.274
20
-82.4889
11
138.346
21
-82.5246
0
LINE
8
BLACK
6
CONTINUOUS
10
138.346
20
-82.5246
11
138.631
21
-82.5246
0
LINE
8
BLACK
6
CONTINUOUS
10
137.596
20
-82.8461
11
137.667
21
-82.8818
0
LINE
8
BLACK
6
CONTINUOUS
10
137.667
20
-82.8818
11
137.81
21
-82.8818
0
LINE
8
BLACK
6
CONTINUOUS
10
137.81
20
-82.8818
11
137.881
21
-82.8461
0
LINE
8
BLACK
6
CONTINUOUS
10
137.881
20
-82.8461
11
137.917
21
-82.7746
0
LINE
8
BLACK
6
CONTINUOUS
10
137.917
20
-82.7746
11
137.917
21
-82.4889
0
LINE
8
BLACK
6
CONTINUOUS
10
137.917
20
-82.4889
11
137.881
21
-82.4175
0
LINE
8
BLACK
6
CONTINUOUS
10
137.881
20
-82.4175
11
137.81
21
-82.3818
0
LINE
8
BLACK
6
CONTINUOUS
10
137.81
20
-82.3818
11
137.667
21
-82.3818
0
LINE
8
BLACK
6
CONTINUOUS
10
137.667
20
-82.3818
11
137.596
21
-82.4175
0
LINE
8
BLACK
6
CONTINUOUS
10
137.596
20
-82.4175
11
137.56
21
-82.4889
0
LINE
8
BLACK
6
CONTINUOUS
10
137.56
20
-82.4889
11
137.56
21
-82.5604
0
LINE
8
BLACK
6
CONTINUOUS
10
137.56
20
-82.5604
11
137.917
21
-82.6318
0
LINE
8
BLACK
6
CONTINUOUS
10
137.31
20
-82.3818
11
137.131
21
-82.8818
0
LINE
8
BLACK
6
CONTINUOUS
10
137.131
20
-82.8818
11
136.953
21
-82.3818
0
LINE
8
BLACK
6
CONTINUOUS
10
136.381
20
-82.8461
11
136.453
21
-82.8818
0
LINE
8
BLACK
6
CONTINUOUS
10
136.453
20
-82.8818
11
136.596
21
-82.8818
0
LINE
8
BLACK
6
CONTINUOUS
10
136.596
20
-82.8818
11
136.667
21
-82.8461
0
LINE
8
BLACK
6
CONTINUOUS
10
136.667
20
-82.8461
11
136.703
21
-82.7746
0
LINE
8
BLACK
6
CONTINUOUS
10
136.703
20
-82.7746
11
136.703
21
-82.4889
0
LINE
8
BLACK
6
CONTINUOUS
10
136.703
20
-82.4889
11
136.667
21
-82.4175
0
LINE
8
BLACK
6
CONTINUOUS
10
136.667
20
-82.4175
11
136.596
21
-82.3818
0
LINE
8
BLACK
6
CONTINUOUS
10
136.596
20
-82.3818
11
136.453
21
-82.3818
0
LINE
8
BLACK
6
CONTINUOUS
10
136.453
20
-82.3818
11
136.381
21
-82.4175
0
LINE
8
BLACK
6
CONTINUOUS
10
136.381
20
-82.4175
11
136.346
21
-82.4889
0
LINE
8
BLACK
6
CONTINUOUS
10
136.346
20
-82.4889
11
136.346
21
-82.5604
0
LINE
8
BLACK
6
CONTINUOUS
10
136.346
20
-82.5604
11
136.703
21
-82.6318
0
LINE
8
BLACK
6
CONTINUOUS
10
136.024
20
-82.8818
11
136.024
21
-82.3818
0
LINE
8
BLACK
6
CONTINUOUS
10
136.024
20
-82.5246
11
135.989
21
-82.4532
0
LINE
8
BLACK
6
CONTINUOUS
10
135.989
20
-82.4532
11
135.953
21
-82.4175
0
LINE
8
BLACK
6
CONTINUOUS
10
135.953
20
-82.4175
11
135.881
21
-82.3818
0
LINE
8
BLACK
6
CONTINUOUS
10
135.881
20
-82.3818
11
135.81
21
-82.3818
0
LINE
8
BLACK
6
CONTINUOUS
10
135.596
20
-82.8461
11
135.524
21
-82.8818
0
LINE
8
BLACK
6
CONTINUOUS
10
135.524
20
-82.8818
11
135.381
21
-82.8818
0
LINE
8
BLACK
6
CONTINUOUS
10
135.381
20
-82.8818
11
135.31
21
-82.8461
0
LINE
8
BLACK
6
CONTINUOUS
10
135.31
20
-82.8461
11
135.274
21
-82.7746
0
LINE
8
BLACK
6
CONTINUOUS
10
135.274
20
-82.7746
11
135.274
21
-82.7389
0
LINE
8
BLACK
6
CONTINUOUS
10
135.274
20
-82.7389
11
135.31
21
-82.6675
0
LINE
8
BLACK
6
CONTINUOUS
10
135.31
20
-82.6675
11
135.381
21
-82.6318
0
LINE
8
BLACK
6
CONTINUOUS
10
135.381
20
-82.6318
11
135.489
21
-82.6318
0
LINE
8
BLACK
6
CONTINUOUS
10
135.489
20
-82.6318
11
135.56
21
-82.5961
0
LINE
8
BLACK
6
CONTINUOUS
10
135.56
20
-82.5961
11
135.596
21
-82.5246
0
LINE
8
BLACK
6
CONTINUOUS
10
135.596
20
-82.5246
11
135.596
21
-82.4889
0
LINE
8
BLACK
6
CONTINUOUS
10
135.596
20
-82.4889
11
135.56
21
-82.4175
0
LINE
8
BLACK
6
CONTINUOUS
10
135.56
20
-82.4175
11
135.489
21
-82.3818
0
LINE
8
BLACK
6
CONTINUOUS
10
135.489
20
-82.3818
11
135.381
21
-82.3818
0
LINE
8
BLACK
6
CONTINUOUS
10
135.381
20
-82.3818
11
135.31
21
-82.4175
0
LINE
8
BLACK
6
CONTINUOUS
10
134.667
20
-82.8461
11
134.739
21
-82.8818
0
LINE
8
BLACK
6
CONTINUOUS
10
134.739
20
-82.8818
11
134.881
21
-82.8818
0
LINE
8
BLACK
6
CONTINUOUS
10
134.881
20
-82.8818
11
134.953
21
-82.8461
0
LINE
8
BLACK
6
CONTINUOUS
10
134.953
20
-82.8461
11
134.989
21
-82.7746
0
LINE
8
BLACK
6
CONTINUOUS
10
134.989
20
-82.7746
11
134.989
21
-82.4889
0
LINE
8
BLACK
6
CONTINUOUS
10
134.989
20
-82.4889
11
134.953
21
-82.4175
0
LINE
8
BLACK
6
CONTINUOUS
10
134.953
20
-82.4175
11
134.881
21
-82.3818
0
LINE
8
BLACK
6
CONTINUOUS
10
134.881
20
-82.3818
11
134.739
21
-82.3818
0
LINE
8
BLACK
6
CONTINUOUS
10
134.739
20
-82.3818
11
134.667
21
-82.4175
0
LINE
8
BLACK
6
CONTINUOUS
10
134.667
20
-82.4175
11
134.631
21
-82.4889
0
LINE
8
BLACK
6
CONTINUOUS
10
134.631
20
-82.4889
11
134.631
21
-82.5604
0
LINE
8
BLACK
6
CONTINUOUS
10
134.631
20
-82.5604
11
134.989
21
-82.6318
0
LINE
8
BLACK
6
CONTINUOUS
10
133.739
20
-82.3818
11
133.739
21
-83.1318
0
LINE
8
BLACK
6
CONTINUOUS
10
133.739
20
-82.4175
11
133.667
21
-82.3818
0
LINE
8
BLACK
6
CONTINUOUS
10
133.667
20
-82.3818
11
133.524
21
-82.3818
0
LINE
8
BLACK
6
CONTINUOUS
10
133.524
20
-82.3818
11
133.453
21
-82.4175
0
LINE
8
BLACK
6
CONTINUOUS
10
133.453
20
-82.4175
11
133.417
21
-82.4532
0
LINE
8
BLACK
6
CONTINUOUS
10
133.417
20
-82.4532
11
133.381
21
-82.5246
0
LINE
8
BLACK
6
CONTINUOUS
10
133.381
20
-82.5246
11
133.381
21
-82.7389
0
LINE
8
BLACK
6
CONTINUOUS
10
133.381
20
-82.7389
11
133.417
21
-82.8104
0
LINE
8
BLACK
6
CONTINUOUS
10
133.417
20
-82.8104
11
133.453
21
-82.8461
0
LINE
8
BLACK
6
CONTINUOUS
10
133.453
20
-82.8461
11
133.524
21
-82.8818
0
LINE
8
BLACK
6
CONTINUOUS
10
133.524
20
-82.8818
11
133.667
21
-82.8818
0
LINE
8
BLACK
6
CONTINUOUS
10
133.667
20
-82.8818
11
133.739
21
-82.8461
0
LINE
8
BLACK
6
CONTINUOUS
10
132.953
20
-82.8818
11
133.024
21
-82.8461
0
LINE
8
BLACK
6
CONTINUOUS
10
133.024
20
-82.8461
11
133.06
21
-82.8104
0
LINE
8
BLACK
6
CONTINUOUS
10
133.06
20
-82.8104
11
133.096
21
-82.7389
0
LINE
8
BLACK
6
CONTINUOUS
10
133.096
20
-82.7389
11
133.096
21
-82.5246
0
LINE
8
BLACK
6
CONTINUOUS
10
133.096
20
-82.5246
11
133.06
21
-82.4532
0
LINE
8
BLACK
6
CONTINUOUS
10
133.06
20
-82.4532
11
133.024
21
-82.4175
0
LINE
8
BLACK
6
CONTINUOUS
10
133.024
20
-82.4175
11
132.953
21
-82.3818
0
LINE
8
BLACK
6
CONTINUOUS
10
132.953
20
-82.3818
11
132.846
21
-82.3818
0
LINE
8
BLACK
6
CONTINUOUS
10
132.846
20
-82.3818
11
132.774
21
-82.4175
0
LINE
8
BLACK
6
CONTINUOUS
10
132.774
20
-82.4175
11
132.739
21
-82.4532
0
LINE
8
BLACK
6
CONTINUOUS
10
132.739
20
-82.4532
11
132.703
21
-82.5246
0
LINE
8
BLACK
6
CONTINUOUS
10
132.703
20
-82.5246
11
132.703
21
-82.7389
0
LINE
8
BLACK
6
CONTINUOUS
10
132.703
20
-82.7389
11
132.739
21
-82.8104
0
LINE
8
BLACK
6
CONTINUOUS
10
132.739
20
-82.8104
11
132.774
21
-82.8461
0
LINE
8
BLACK
6
CONTINUOUS
10
132.774
20
-82.8461
11
132.846
21
-82.8818
0
LINE
8
BLACK
6
CONTINUOUS
10
132.846
20
-82.8818
11
132.953
21
-82.8818
0
LINE
8
BLACK
6
CONTINUOUS
10
132.274
20
-82.8818
11
132.346
21
-82.8461
0
LINE
8
BLACK
6
CONTINUOUS
10
132.346
20
-82.8461
11
132.381
21
-82.7746
0
LINE
8
BLACK
6
CONTINUOUS
10
132.381
20
-82.7746
11
132.381
21
-82.1318
0
LINE
8
BLACK
6
CONTINUOUS
10
131.667
20
-82.8818
11
131.667
21
-82.4889
0
LINE
8
BLACK
6
CONTINUOUS
10
131.667
20
-82.4889
11
131.703
21
-82.4175
0
LINE
8
BLACK
6
CONTINUOUS
10
131.703
20
-82.4175
11
131.774
21
-82.3818
0
LINE
8
BLACK
6
CONTINUOUS
10
131.774
20
-82.3818
11
131.917
21
-82.3818
0
LINE
8
BLACK
6
CONTINUOUS
10
131.917
20
-82.3818
11
131.989
21
-82.4175
0
LINE
8
BLACK
6
CONTINUOUS
10
131.667
20
-82.8461
11
131.739
21
-82.8818
0
LINE
8
BLACK
6
CONTINUOUS
10
131.739
20
-82.8818
11
131.917
21
-82.8818
0
LINE
8
BLACK
6
CONTINUOUS
10
131.917
20
-82.8818
11
131.989
21
-82.8461
0
LINE
8
BLACK
6
CONTINUOUS
10
131.989
20
-82.8461
11
132.024
21
-82.7746
0
LINE
8
BLACK
6
CONTINUOUS
10
132.024
20
-82.7746
11
132.024
21
-82.7032
0
LINE
8
BLACK
6
CONTINUOUS
10
132.024
20
-82.7032
11
131.989
21
-82.6318
0
LINE
8
BLACK
6
CONTINUOUS
10
131.989
20
-82.6318
11
131.917
21
-82.5961
0
LINE
8
BLACK
6
CONTINUOUS
10
131.917
20
-82.5961
11
131.739
21
-82.5961
0
LINE
8
BLACK
6
CONTINUOUS
10
131.739
20
-82.5961
11
131.667
21
-82.5604
0
LINE
8
BLACK
6
CONTINUOUS
10
131.31
20
-82.8818
11
131.31
21
-82.3818
0
LINE
8
BLACK
6
CONTINUOUS
10
131.31
20
-82.5246
11
131.274
21
-82.4532
0
LINE
8
BLACK
6
CONTINUOUS
10
131.274
20
-82.4532
11
131.239
21
-82.4175
0
LINE
8
BLACK
6
CONTINUOUS
10
131.239
20
-82.4175
11
131.167
21
-82.3818
0
LINE
8
BLACK
6
CONTINUOUS
10
131.167
20
-82.3818
11
131.096
21
-82.3818
0
LINE
8
BLACK
6
CONTINUOUS
10
130.846
20
-82.8818
11
130.846
21
-82.3818
0
LINE
8
BLACK
6
CONTINUOUS
10
130.846
20
-82.1318
11
130.881
21
-82.1675
0
LINE
8
BLACK
6
CONTINUOUS
10
130.881
20
-82.1675
11
130.846
21
-82.2032
0
LINE
8
BLACK
6
CONTINUOUS
10
130.846
20
-82.2032
11
130.81
21
-82.1675
0
LINE
8
BLACK
6
CONTINUOUS
10
130.81
20
-82.1675
11
130.846
21
-82.1318
0
LINE
8
BLACK
6
CONTINUOUS
10
130.846
20
-82.1318
11
130.846
21
-82.2032
0
LINE
8
BLACK
6
CONTINUOUS
10
130.596
20
-82.3818
11
130.31
21
-82.3818
0
LINE
8
BLACK
6
CONTINUOUS
10
130.489
20
-82.1318
11
130.489
21
-82.7746
0
LINE
8
BLACK
6
CONTINUOUS
10
130.489
20
-82.7746
11
130.453
21
-82.8461
0
LINE
8
BLACK
6
CONTINUOUS
10
130.453
20
-82.8461
11
130.381
21
-82.8818
0
LINE
8
BLACK
6
CONTINUOUS
10
130.381
20
-82.8818
11
130.31
21
-82.8818
0
LINE
8
BLACK
6
CONTINUOUS
10
130.131
20
-82.3818
11
129.953
21
-82.8818
0
LINE
8
BLACK
6
CONTINUOUS
10
129.774
20
-82.3818
11
129.953
21
-82.8818
0
LINE
8
BLACK
6
CONTINUOUS
10
129.953
20
-82.8818
11
130.024
21
-83.0604
0
LINE
8
BLACK
6
CONTINUOUS
10
130.024
20
-83.0604
11
130.06
21
-83.0961
0
LINE
8
BLACK
6
CONTINUOUS
10
130.06
20
-83.0961
11
130.131
21
-83.1318
0
LINE
8
BLACK
6
CONTINUOUS
10
138.703
20
-83.5893
11
138.56
21
-84.0893
0
LINE
8
BLACK
6
CONTINUOUS
10
138.56
20
-84.0893
11
138.417
21
-83.7321
0
LINE
8
BLACK
6
CONTINUOUS
10
138.417
20
-83.7321
11
138.274
21
-84.0893
0
LINE
8
BLACK
6
CONTINUOUS
10
138.274
20
-84.0893
11
138.131
21
-83.5893
0
LINE
8
BLACK
6
CONTINUOUS
10
137.846
20
-84.0893
11
137.846
21
-83.5893
0
LINE
8
BLACK
6
CONTINUOUS
10
137.846
20
-83.3393
11
137.881
21
-83.375
0
LINE
8
BLACK
6
CONTINUOUS
10
137.881
20
-83.375
11
137.846
21
-83.4107
0
LINE
8
BLACK
6
CONTINUOUS
10
137.846
20
-83.4107
11
137.81
21
-83.375
0
LINE
8
BLACK
6
CONTINUOUS
10
137.81
20
-83.375
11
137.846
21
-83.3393
0
LINE
8
BLACK
6
CONTINUOUS
10
137.846
20
-83.3393
11
137.846
21
-83.4107
0
LINE
8
BLACK
6
CONTINUOUS
10
137.381
20
-84.0893
11
137.453
21
-84.0536
0
LINE
8
BLACK
6
CONTINUOUS
10
137.453
20
-84.0536
11
137.489
21
-83.9821
0
LINE
8
BLACK
6
CONTINUOUS
10
137.489
20
-83.9821
11
137.489
21
-83.3393
0
LINE
8
BLACK
6
CONTINUOUS
10
136.989
20
-84.0893
11
137.06
21
-84.0536
0
LINE
8
BLACK
6
CONTINUOUS
10
137.06
20
-84.0536
11
137.096
21
-83.9821
0
LINE
8
BLACK
6
CONTINUOUS
10
137.096
20
-83.9821
11
137.096
21
-83.3393
0
LINE
8
BLACK
6
CONTINUOUS
10
135.81
20
-84.0893
11
135.81
21
-83.3393
0
LINE
8
BLACK
6
CONTINUOUS
10
135.81
20
-84.0536
11
135.881
21
-84.0893
0
LINE
8
BLACK
6
CONTINUOUS
10
135.881
20
-84.0893
11
136.024
21
-84.0893
0
LINE
8
BLACK
6
CONTINUOUS
10
136.024
20
-84.0893
11
136.096
21
-84.0536
0
LINE
8
BLACK
6
CONTINUOUS
10
136.096
20
-84.0536
11
136.131
21
-84.0179
0
LINE
8
BLACK
6
CONTINUOUS
10
136.131
20
-84.0179
11
136.167
21
-83.9464
0
LINE
8
BLACK
6
CONTINUOUS
10
136.167
20
-83.9464
11
136.167
21
-83.7321
0
LINE
8
BLACK
6
CONTINUOUS
10
136.167
20
-83.7321
11
136.131
21
-83.6607
0
LINE
8
BLACK
6
CONTINUOUS
10
136.131
20
-83.6607
11
136.096
21
-83.625
0
LINE
8
BLACK
6
CONTINUOUS
10
136.096
20
-83.625
11
136.024
21
-83.5893
0
LINE
8
BLACK
6
CONTINUOUS
10
136.024
20
-83.5893
11
135.881
21
-83.5893
0
LINE
8
BLACK
6
CONTINUOUS
10
135.881
20
-83.5893
11
135.81
21
-83.625
0
LINE
8
BLACK
6
CONTINUOUS
10
135.131
20
-84.0893
11
135.131
21
-83.6964
0
LINE
8
BLACK
6
CONTINUOUS
10
135.131
20
-83.6964
11
135.167
21
-83.625
0
LINE
8
BLACK
6
CONTINUOUS
10
135.167
20
-83.625
11
135.239
21
-83.5893
0
LINE
8
BLACK
6
CONTINUOUS
10
135.239
20
-83.5893
11
135.381
21
-83.5893
0
LINE
8
BLACK
6
CONTINUOUS
10
135.381
20
-83.5893
11
135.453
21
-83.625
0
LINE
8
BLACK
6
CONTINUOUS
10
135.131
20
-84.0536
11
135.203
21
-84.0893
0
LINE
8
BLACK
6
CONTINUOUS
10
135.203
20
-84.0893
11
135.381
21
-84.0893
0
LINE
8
BLACK
6
CONTINUOUS
10
135.381
20
-84.0893
11
135.453
21
-84.0536
0
LINE
8
BLACK
6
CONTINUOUS
10
135.453
20
-84.0536
11
135.489
21
-83.9821
0
LINE
8
BLACK
6
CONTINUOUS
10
135.489
20
-83.9821
11
135.489
21
-83.9107
0
LINE
8
BLACK
6
CONTINUOUS
10
135.489
20
-83.9107
11
135.453
21
-83.8393
0
LINE
8
BLACK
6
CONTINUOUS
10
135.453
20
-83.8393
11
135.381
21
-83.8036
0
LINE
8
BLACK
6
CONTINUOUS
10
135.381
20
-83.8036
11
135.203
21
-83.8036
0
LINE
8
BLACK
6
CONTINUOUS
10
135.203
20
-83.8036
11
135.131
21
-83.7679
0
LINE
8
BLACK
6
CONTINUOUS
10
134.774
20
-84.0893
11
134.774
21
-83.5893
0
LINE
8
BLACK
6
CONTINUOUS
10
134.774
20
-83.6607
11
134.739
21
-83.625
0
LINE
8
BLACK
6
CONTINUOUS
10
134.739
20
-83.625
11
134.667
21
-83.5893
0
LINE
8
BLACK
6
CONTINUOUS
10
134.667
20
-83.5893
11
134.56
21
-83.5893
0
LINE
8
BLACK
6
CONTINUOUS
10
134.56
20
-83.5893
11
134.489
21
-83.625
0
LINE
8
BLACK
6
CONTINUOUS
10
134.489
20
-83.625
11
134.453
21
-83.6964
0
LINE
8
BLACK
6
CONTINUOUS
10
134.453
20
-83.6964
11
134.453
21
-84.0893
0
LINE
8
BLACK
6
CONTINUOUS
10
134.453
20
-83.6964
11
134.417
21
-83.625
0
LINE
8
BLACK
6
CONTINUOUS
10
134.417
20
-83.625
11
134.346
21
-83.5893
0
LINE
8
BLACK
6
CONTINUOUS
10
134.346
20
-83.5893
11
134.239
21
-83.5893
0
LINE
8
BLACK
6
CONTINUOUS
10
134.239
20
-83.5893
11
134.167
21
-83.625
0
LINE
8
BLACK
6
CONTINUOUS
10
134.167
20
-83.625
11
134.131
21
-83.6964
0
LINE
8
BLACK
6
CONTINUOUS
10
134.131
20
-83.6964
11
134.131
21
-84.0893
0
LINE
8
BLACK
6
CONTINUOUS
10
133.453
20
-84.0893
11
133.453
21
-83.6964
0
LINE
8
BLACK
6
CONTINUOUS
10
133.453
20
-83.6964
11
133.489
21
-83.625
0
LINE
8
BLACK
6
CONTINUOUS
10
133.489
20
-83.625
11
133.56
21
-83.5893
0
LINE
8
BLACK
6
CONTINUOUS
10
133.56
20
-83.5893
11
133.703
21
-83.5893
0
LINE
8
BLACK
6
CONTINUOUS
10
133.703
20
-83.5893
11
133.774
21
-83.625
0
LINE
8
BLACK
6
CONTINUOUS
10
133.453
20
-84.0536
11
133.524
21
-84.0893
0
LINE
8
BLACK
6
CONTINUOUS
10
133.524
20
-84.0893
11
133.703
21
-84.0893
0
LINE
8
BLACK
6
CONTINUOUS
10
133.703
20
-84.0893
11
133.774
21
-84.0536
0
LINE
8
BLACK
6
CONTINUOUS
10
133.774
20
-84.0536
11
133.81
21
-83.9821
0
LINE
8
BLACK
6
CONTINUOUS
10
133.81
20
-83.9821
11
133.81
21
-83.9107
0
LINE
8
BLACK
6
CONTINUOUS
10
133.81
20
-83.9107
11
133.774
21
-83.8393
0
LINE
8
BLACK
6
CONTINUOUS
10
133.774
20
-83.8393
11
133.703
21
-83.8036
0
LINE
8
BLACK
6
CONTINUOUS
10
133.703
20
-83.8036
11
133.524
21
-83.8036
0
LINE
8
BLACK
6
CONTINUOUS
10
133.524
20
-83.8036
11
133.453
21
-83.7679
0
LINE
8
BLACK
6
CONTINUOUS
10
132.774
20
-83.5893
11
132.774
21
-84.1964
0
LINE
8
BLACK
6
CONTINUOUS
10
132.774
20
-84.1964
11
132.81
21
-84.2679
0
LINE
8
BLACK
6
CONTINUOUS
10
132.81
20
-84.2679
11
132.846
21
-84.3036
0
LINE
8
BLACK
6
CONTINUOUS
10
132.846
20
-84.3036
11
132.917
21
-84.3393
0
LINE
8
BLACK
6
CONTINUOUS
10
132.917
20
-84.3393
11
133.024
21
-84.3393
0
LINE
8
BLACK
6
CONTINUOUS
10
133.024
20
-84.3393
11
133.096
21
-84.3036
0
LINE
8
BLACK
6
CONTINUOUS
10
132.774
20
-84.0536
11
132.846
21
-84.0893
0
LINE
8
BLACK
6
CONTINUOUS
10
132.846
20
-84.0893
11
132.989
21
-84.0893
0
LINE
8
BLACK
6
CONTINUOUS
10
132.989
20
-84.0893
11
133.06
21
-84.0536
0
LINE
8
BLACK
6
CONTINUOUS
10
133.06
20
-84.0536
11
133.096
21
-84.0179
0
LINE
8
BLACK
6
CONTINUOUS
10
133.096
20
-84.0179
11
133.131
21
-83.9464
0
LINE
8
BLACK
6
CONTINUOUS
10
133.131
20
-83.9464
11
133.131
21
-83.7321
0
LINE
8
BLACK
6
CONTINUOUS
10
133.131
20
-83.7321
11
133.096
21
-83.6607
0
LINE
8
BLACK
6
CONTINUOUS
10
133.096
20
-83.6607
11
133.06
21
-83.625
0
LINE
8
BLACK
6
CONTINUOUS
10
133.06
20
-83.625
11
132.989
21
-83.5893
0
LINE
8
BLACK
6
CONTINUOUS
10
132.989
20
-83.5893
11
132.846
21
-83.5893
0
LINE
8
BLACK
6
CONTINUOUS
10
132.846
20
-83.5893
11
132.774
21
-83.625
0
LINE
8
BLACK
6
CONTINUOUS
10
132.131
20
-84.0536
11
132.203
21
-84.0893
0
LINE
8
BLACK
6
CONTINUOUS
10
132.203
20
-84.0893
11
132.346
21
-84.0893
0
LINE
8
BLACK
6
CONTINUOUS
10
132.346
20
-84.0893
11
132.417
21
-84.0536
0
LINE
8
BLACK
6
CONTINUOUS
10
132.417
20
-84.0536
11
132.453
21
-83.9821
0
LINE
8
BLACK
6
CONTINUOUS
10
132.453
20
-83.9821
11
132.453
21
-83.6964
0
LINE
8
BLACK
6
CONTINUOUS
10
132.453
20
-83.6964
11
132.417
21
-83.625
0
LINE
8
BLACK
6
CONTINUOUS
10
132.417
20
-83.625
11
132.346
21
-83.5893
0
LINE
8
BLACK
6
CONTINUOUS
10
132.346
20
-83.5893
11
132.203
21
-83.5893
0
LINE
8
BLACK
6
CONTINUOUS
10
132.203
20
-83.5893
11
132.131
21
-83.625
0
LINE
8
BLACK
6
CONTINUOUS
10
132.131
20
-83.625
11
132.096
21
-83.6964
0
LINE
8
BLACK
6
CONTINUOUS
10
132.096
20
-83.6964
11
132.096
21
-83.7679
0
LINE
8
BLACK
6
CONTINUOUS
10
132.096
20
-83.7679
11
132.453
21
-83.8393
0
LINE
8
BLACK
6
CONTINUOUS
10
131.31
20
-83.5893
11
131.024
21
-83.5893
0
LINE
8
BLACK
6
CONTINUOUS
10
131.203
20
-83.3393
11
131.203
21
-83.9821
0
LINE
8
BLACK
6
CONTINUOUS
10
131.203
20
-83.9821
11
131.167
21
-84.0536
0
LINE
8
BLACK
6
CONTINUOUS
10
131.167
20
-84.0536
11
131.096
21
-84.0893
0
LINE
8
BLACK
6
CONTINUOUS
10
131.096
20
-84.0893
11
131.024
21
-84.0893
0
LINE
8
BLACK
6
CONTINUOUS
10
130.774
20
-84.0893
11
130.774
21
-83.3393
0
LINE
8
BLACK
6
CONTINUOUS
10
130.453
20
-84.0893
11
130.453
21
-83.6964
0
LINE
8
BLACK
6
CONTINUOUS
10
130.453
20
-83.6964
11
130.489
21
-83.625
0
LINE
8
BLACK
6
CONTINUOUS
10
130.489
20
-83.625
11
130.56
21
-83.5893
0
LINE
8
BLACK
6
CONTINUOUS
10
130.56
20
-83.5893
11
130.667
21
-83.5893
0
LINE
8
BLACK
6
CONTINUOUS
10
130.667
20
-83.5893
11
130.739
21
-83.625
0
LINE
8
BLACK
6
CONTINUOUS
10
130.739
20
-83.625
11
130.774
21
-83.6607
0
LINE
8
BLACK
6
CONTINUOUS
10
129.81
20
-84.0536
11
129.881
21
-84.0893
0
LINE
8
BLACK
6
CONTINUOUS
10
129.881
20
-84.0893
11
130.024
21
-84.0893
0
LINE
8
BLACK
6
CONTINUOUS
10
130.024
20
-84.0893
11
130.096
21
-84.0536
0
LINE
8
BLACK
6
CONTINUOUS
10
130.096
20
-84.0536
11
130.131
21
-83.9821
0
LINE
8
BLACK
6
CONTINUOUS
10
130.131
20
-83.9821
11
130.131
21
-83.6964
0
LINE
8
BLACK
6
CONTINUOUS
10
130.131
20
-83.6964
11
130.096
21
-83.625
0
LINE
8
BLACK
6
CONTINUOUS
10
130.096
20
-83.625
11
130.024
21
-83.5893
0
LINE
8
BLACK
6
CONTINUOUS
10
130.024
20
-83.5893
11
129.881
21
-83.5893
0
LINE
8
BLACK
6
CONTINUOUS
10
129.881
20
-83.5893
11
129.81
21
-83.625
0
LINE
8
BLACK
6
CONTINUOUS
10
129.81
20
-83.625
11
129.774
21
-83.6964
0
LINE
8
BLACK
6
CONTINUOUS
10
129.774
20
-83.6964
11
129.774
21
-83.7679
0
LINE
8
BLACK
6
CONTINUOUS
10
129.774
20
-83.7679
11
130.131
21
-83.8393
0
LINE
8
BLACK
6
CONTINUOUS
10
138.31
20
-85.2968
11
138.31
21
-84.5468
0
LINE
8
BLACK
6
CONTINUOUS
10
138.31
20
-85.2611
11
138.381
21
-85.2968
0
LINE
8
BLACK
6
CONTINUOUS
10
138.381
20
-85.2968
11
138.524
21
-85.2968
0
LINE
8
BLACK
6
CONTINUOUS
10
138.524
20
-85.2968
11
138.596
21
-85.2611
0
LINE
8
BLACK
6
CONTINUOUS
10
138.596
20
-85.2611
11
138.631
21
-85.2254
0
LINE
8
BLACK
6
CONTINUOUS
10
138.631
20
-85.2254
11
138.667
21
-85.1539
0
LINE
8
BLACK
6
CONTINUOUS
10
138.667
20
-85.1539
11
138.667
21
-84.9396
0
LINE
8
BLACK
6
CONTINUOUS
10
138.667
20
-84.9396
11
138.631
21
-84.8682
0
LINE
8
BLACK
6
CONTINUOUS
10
138.631
20
-84.8682
11
138.596
21
-84.8325
0
LINE
8
BLACK
6
CONTINUOUS
10
138.596
20
-84.8325
11
138.524
21
-84.7968
0
LINE
8
BLACK
6
CONTINUOUS
10
138.524
20
-84.7968
11
138.381
21
-84.7968
0
LINE
8
BLACK
6
CONTINUOUS
10
138.381
20
-84.7968
11
138.31
21
-84.8325
0
LINE
8
BLACK
6
CONTINUOUS
10
137.667
20
-85.2611
11
137.739
21
-85.2968
0
LINE
8
BLACK
6
CONTINUOUS
10
137.739
20
-85.2968
11
137.881
21
-85.2968
0
LINE
8
BLACK
6
CONTINUOUS
10
137.881
20
-85.2968
11
137.953
21
-85.2611
0
LINE
8
BLACK
6
CONTINUOUS
10
137.953
20
-85.2611
11
137.989
21
-85.1896
0
LINE
8
BLACK
6
CONTINUOUS
10
137.989
20
-85.1896
11
137.989
21
-84.9039
0
LINE
8
BLACK
6
CONTINUOUS
10
137.989
20
-84.9039
11
137.953
21
-84.8325
0
LINE
8
BLACK
6
CONTINUOUS
10
137.953
20
-84.8325
11
137.881
21
-84.7968
0
LINE
8
BLACK
6
CONTINUOUS
10
137.881
20
-84.7968
11
137.739
21
-84.7968
0
LINE
8
BLACK
6
CONTINUOUS
10
137.739
20
-84.7968
11
137.667
21
-84.8325
0
LINE
8
BLACK
6
CONTINUOUS
10
137.667
20
-84.8325
11
137.631
21
-84.9039
0
LINE
8
BLACK
6
CONTINUOUS
10
137.631
20
-84.9039
11
137.631
21
-84.9754
0
LINE
8
BLACK
6
CONTINUOUS
10
137.631
20
-84.9754
11
137.989
21
-85.0468
0
LINE
8
BLACK
6
CONTINUOUS
10
137.381
20
-84.7968
11
137.203
21
-85.2968
0
LINE
8
BLACK
6
CONTINUOUS
10
137.203
20
-85.2968
11
137.024
21
-84.7968
0
LINE
8
BLACK
6
CONTINUOUS
10
136.739
20
-85.2968
11
136.739
21
-84.7968
0
LINE
8
BLACK
6
CONTINUOUS
10
136.739
20
-84.5468
11
136.774
21
-84.5825
0
LINE
8
BLACK
6
CONTINUOUS
10
136.774
20
-84.5825
11
136.739
21
-84.6182
0
LINE
8
BLACK
6
CONTINUOUS
10
136.739
20
-84.6182
11
136.703
21
-84.5825
0
LINE
8
BLACK
6
CONTINUOUS
10
136.703
20
-84.5825
11
136.739
21
-84.5468
0
LINE
8
BLACK
6
CONTINUOUS
10
136.739
20
-84.5468
11
136.739
21
-84.6182
0
LINE
8
BLACK
6
CONTINUOUS
10
136.06
20
-85.2611
11
136.131
21
-85.2968
0
LINE
8
BLACK
6
CONTINUOUS
10
136.131
20
-85.2968
11
136.274
21
-85.2968
0
LINE
8
BLACK
6
CONTINUOUS
10
136.274
20
-85.2968
11
136.346
21
-85.2611
0
LINE
8
BLACK
6
CONTINUOUS
10
136.346
20
-85.2611
11
136.381
21
-85.2254
0
LINE
8
BLACK
6
CONTINUOUS
10
136.381
20
-85.2254
11
136.417
21
-85.1539
0
LINE
8
BLACK
6
CONTINUOUS
10
136.417
20
-85.1539
11
136.417
21
-84.9396
0
LINE
8
BLACK
6
CONTINUOUS
10
136.417
20
-84.9396
11
136.381
21
-84.8682
0
LINE
8
BLACK
6
CONTINUOUS
10
136.381
20
-84.8682
11
136.346
21
-84.8325
0
LINE
8
BLACK
6
CONTINUOUS
10
136.346
20
-84.8325
11
136.274
21
-84.7968
0
LINE
8
BLACK
6
CONTINUOUS
10
136.274
20
-84.7968
11
136.131
21
-84.7968
0
LINE
8
BLACK
6
CONTINUOUS
10
136.131
20
-84.7968
11
136.06
21
-84.8325
0
LINE
8
BLACK
6
CONTINUOUS
10
135.453
20
-85.2611
11
135.524
21
-85.2968
0
LINE
8
BLACK
6
CONTINUOUS
10
135.524
20
-85.2968
11
135.667
21
-85.2968
0
LINE
8
BLACK
6
CONTINUOUS
10
135.667
20
-85.2968
11
135.739
21
-85.2611
0
LINE
8
BLACK
6
CONTINUOUS
10
135.739
20
-85.2611
11
135.774
21
-85.1896
0
LINE
8
BLACK
6
CONTINUOUS
10
135.774
20
-85.1896
11
135.774
21
-84.9039
0
LINE
8
BLACK
6
CONTINUOUS
10
135.774
20
-84.9039
11
135.739
21
-84.8325
0
LINE
8
BLACK
6
CONTINUOUS
10
135.739
20
-84.8325
11
135.667
21
-84.7968
0
LINE
8
BLACK
6
CONTINUOUS
10
135.667
20
-84.7968
11
135.524
21
-84.7968
0
LINE
8
BLACK
6
CONTINUOUS
10
135.524
20
-84.7968
11
135.453
21
-84.8325
0
LINE
8
BLACK
6
CONTINUOUS
10
135.453
20
-84.8325
11
135.417
21
-84.9039
0
LINE
8
BLACK
6
CONTINUOUS
10
135.417
20
-84.9039
11
135.417
21
-84.9754
0
LINE
8
BLACK
6
CONTINUOUS
10
135.417
20
-84.9754
11
135.774
21
-85.0468
0
LINE
8
BLACK
6
CONTINUOUS
10
29.0073
20
-108.652
11
28.6739
21
-109.652
0
LINE
8
BLACK
6
CONTINUOUS
10
28.6739
20
-109.652
11
28.3406
21
-108.652
0
LINE
8
BLACK
6
CONTINUOUS
10
27.0549
20
-108.652
11
26.9596
21
-108.652
0
LINE
8
BLACK
6
CONTINUOUS
10
26.9596
20
-108.652
11
26.8644
21
-108.7
0
LINE
8
BLACK
6
CONTINUOUS
10
26.8644
20
-108.7
11
26.8168
21
-108.748
0
LINE
8
BLACK
6
CONTINUOUS
10
26.8168
20
-108.748
11
26.7692
21
-108.843
0
LINE
8
BLACK
6
CONTINUOUS
10
26.7692
20
-108.843
11
26.7215
21
-109.033
0
LINE
8
BLACK
6
CONTINUOUS
10
26.7215
20
-109.033
11
26.7215
21
-109.271
0
LINE
8
BLACK
6
CONTINUOUS
10
26.7215
20
-109.271
11
26.7692
21
-109.462
0
LINE
8
BLACK
6
CONTINUOUS
10
26.7692
20
-109.462
11
26.8168
21
-109.557
0
LINE
8
BLACK
6
CONTINUOUS
10
26.8168
20
-109.557
11
26.8644
21
-109.605
0
LINE
8
BLACK
6
CONTINUOUS
10
26.8644
20
-109.605
11
26.9596
21
-109.652
0
LINE
8
BLACK
6
CONTINUOUS
10
26.9596
20
-109.652
11
27.0549
21
-109.652
0
LINE
8
BLACK
6
CONTINUOUS
10
27.0549
20
-109.652
11
27.1501
21
-109.605
0
LINE
8
BLACK
6
CONTINUOUS
10
27.1501
20
-109.605
11
27.1977
21
-109.557
0
LINE
8
BLACK
6
CONTINUOUS
10
27.1977
20
-109.557
11
27.2454
21
-109.462
0
LINE
8
BLACK
6
CONTINUOUS
10
27.2454
20
-109.462
11
27.293
21
-109.271
0
LINE
8
BLACK
6
CONTINUOUS
10
27.293
20
-109.271
11
27.293
21
-109.033
0
LINE
8
BLACK
6
CONTINUOUS
10
27.293
20
-109.033
11
27.2454
21
-108.843
0
LINE
8
BLACK
6
CONTINUOUS
10
27.2454
20
-108.843
11
27.1977
21
-108.748
0
LINE
8
BLACK
6
CONTINUOUS
10
27.1977
20
-108.748
11
27.1501
21
-108.7
0
LINE
8
BLACK
6
CONTINUOUS
10
27.1501
20
-108.7
11
27.0549
21
-108.652
0
LINE
8
BLACK
6
CONTINUOUS
10
26.293
20
-109.557
11
26.2454
21
-109.605
0
LINE
8
BLACK
6
CONTINUOUS
10
26.2454
20
-109.605
11
26.293
21
-109.652
0
LINE
8
BLACK
6
CONTINUOUS
10
26.293
20
-109.652
11
26.3406
21
-109.605
0
LINE
8
BLACK
6
CONTINUOUS
10
26.3406
20
-109.605
11
26.293
21
-109.557
0
LINE
8
BLACK
6
CONTINUOUS
10
26.293
20
-109.557
11
26.293
21
-109.652
0
LINE
8
BLACK
6
CONTINUOUS
10
25.3406
20
-108.652
11
25.8168
21
-108.652
0
LINE
8
BLACK
6
CONTINUOUS
10
25.8168
20
-108.652
11
25.8644
21
-109.129
0
LINE
8
BLACK
6
CONTINUOUS
10
25.8644
20
-109.129
11
25.8168
21
-109.081
0
LINE
8
BLACK
6
CONTINUOUS
10
25.8168
20
-109.081
11
25.7215
21
-109.033
0
LINE
8
BLACK
6
CONTINUOUS
10
25.7215
20
-109.033
11
25.4835
21
-109.033
0
LINE
8
BLACK
6
CONTINUOUS
10
25.4835
20
-109.033
11
25.3882
21
-109.081
0
LINE
8
BLACK
6
CONTINUOUS
10
25.3882
20
-109.081
11
25.3406
21
-109.129
0
LINE
8
BLACK
6
CONTINUOUS
10
25.3406
20
-109.129
11
25.293
21
-109.224
0
LINE
8
BLACK
6
CONTINUOUS
10
25.293
20
-109.224
11
25.293
21
-109.462
0
LINE
8
BLACK
6
CONTINUOUS
10
25.293
20
-109.462
11
25.3406
21
-109.557
0
LINE
8
BLACK
6
CONTINUOUS
10
25.3406
20
-109.557
11
25.3882
21
-109.605
0
LINE
8
BLACK
6
CONTINUOUS
10
25.3882
20
-109.605
11
25.4835
21
-109.652
0
LINE
8
BLACK
6
CONTINUOUS
10
25.4835
20
-109.652
11
25.7215
21
-109.652
0
LINE
8
BLACK
6
CONTINUOUS
10
25.7215
20
-109.652
11
25.8168
21
-109.605
0
LINE
8
BLACK
6
CONTINUOUS
10
25.8168
20
-109.605
11
25.8644
21
-109.557
0
LINE
8
BLACK
6
CONTINUOUS
10
24.1025
20
-109.271
11
23.3406
21
-109.271
0
LINE
8
BLACK
6
CONTINUOUS
10
22.1501
20
-108.748
11
22.1025
21
-108.7
0
LINE
8
BLACK
6
CONTINUOUS
10
22.1025
20
-108.7
11
22.0073
21
-108.652
0
LINE
8
BLACK
6
CONTINUOUS
10
22.0073
20
-108.652
11
21.7692
21
-108.652
0
LINE
8
BLACK
6
CONTINUOUS
10
21.7692
20
-108.652
11
21.6739
21
-108.7
0
LINE
8
BLACK
6
CONTINUOUS
10
21.6739
20
-108.7
11
21.6263
21
-108.748
0
LINE
8
BLACK
6
CONTINUOUS
10
21.6263
20
-108.748
11
21.5787
21
-108.843
0
LINE
8
BLACK
6
CONTINUOUS
10
21.5787
20
-108.843
11
21.5787
21
-108.938
0
LINE
8
BLACK
6
CONTINUOUS
10
21.5787
20
-108.938
11
21.6263
21
-109.081
0
LINE
8
BLACK
6
CONTINUOUS
10
21.6263
20
-109.081
11
22.1977
21
-109.652
0
LINE
8
BLACK
6
CONTINUOUS
10
22.1977
20
-109.652
11
21.5787
21
-109.652
0
LINE
8
BLACK
6
CONTINUOUS
10
20.9596
20
-108.652
11
20.8644
21
-108.652
0
LINE
8
BLACK
6
CONTINUOUS
10
20.8644
20
-108.652
11
20.7692
21
-108.7
0
LINE
8
BLACK
6
CONTINUOUS
10
20.7692
20
-108.7
11
20.7215
21
-108.748
0
LINE
8
BLACK
6
CONTINUOUS
10
20.7215
20
-108.748
11
20.6739
21
-108.843
0
LINE
8
BLACK
6
CONTINUOUS
10
20.6739
20
-108.843
11
20.6263
21
-109.033
0
LINE
8
BLACK
6
CONTINUOUS
10
20.6263
20
-109.033
11
20.6263
21
-109.271
0
LINE
8
BLACK
6
CONTINUOUS
10
20.6263
20
-109.271
11
20.6739
21
-109.462
0
LINE
8
BLACK
6
CONTINUOUS
10
20.6739
20
-109.462
11
20.7215
21
-109.557
0
LINE
8
BLACK
6
CONTINUOUS
10
20.7215
20
-109.557
11
20.7692
21
-109.605
0
LINE
8
BLACK
6
CONTINUOUS
10
20.7692
20
-109.605
11
20.8644
21
-109.652
0
LINE
8
BLACK
6
CONTINUOUS
10
20.8644
20
-109.652
11
20.9596
21
-109.652
0
LINE
8
BLACK
6
CONTINUOUS
10
20.9596
20
-109.652
11
21.0549
21
-109.605
0
LINE
8
BLACK
6
CONTINUOUS
10
21.0549
20
-109.605
11
21.1025
21
-109.557
0
LINE
8
BLACK
6
CONTINUOUS
10
21.1025
20
-109.557
11
21.1501
21
-109.462
0
LINE
8
BLACK
6
CONTINUOUS
10
21.1501
20
-109.462
11
21.1977
21
-109.271
0
LINE
8
BLACK
6
CONTINUOUS
10
21.1977
20
-109.271
11
21.1977
21
-109.033
0
LINE
8
BLACK
6
CONTINUOUS
10
21.1977
20
-109.033
11
21.1501
21
-108.843
0
LINE
8
BLACK
6
CONTINUOUS
10
21.1501
20
-108.843
11
21.1025
21
-108.748
0
LINE
8
BLACK
6
CONTINUOUS
10
21.1025
20
-108.748
11
21.0549
21
-108.7
0
LINE
8
BLACK
6
CONTINUOUS
10
21.0549
20
-108.7
11
20.9596
21
-108.652
0
LINE
8
BLACK
6
CONTINUOUS
10
20.2454
20
-108.748
11
20.1977
21
-108.7
0
LINE
8
BLACK
6
CONTINUOUS
10
20.1977
20
-108.7
11
20.1025
21
-108.652
0
LINE
8
BLACK
6
CONTINUOUS
10
20.1025
20
-108.652
11
19.8644
21
-108.652
0
LINE
8
BLACK
6
CONTINUOUS
10
19.8644
20
-108.652
11
19.7692
21
-108.7
0
LINE
8
BLACK
6
CONTINUOUS
10
19.7692
20
-108.7
11
19.7215
21
-108.748
0
LINE
8
BLACK
6
CONTINUOUS
10
19.7215
20
-108.748
11
19.6739
21
-108.843
0
LINE
8
BLACK
6
CONTINUOUS
10
19.6739
20
-108.843
11
19.6739
21
-108.938
0
LINE
8
BLACK
6
CONTINUOUS
10
19.6739
20
-108.938
11
19.7215
21
-109.081
0
LINE
8
BLACK
6
CONTINUOUS
10
19.7215
20
-109.081
11
20.293
21
-109.652
0
LINE
8
BLACK
6
CONTINUOUS
10
20.293
20
-109.652
11
19.6739
21
-109.652
0
LINE
8
BLACK
6
CONTINUOUS
10
18.8168
20
-108.986
11
18.8168
21
-109.652
0
LINE
8
BLACK
6
CONTINUOUS
10
19.0549
20
-108.605
11
19.293
21
-109.319
0
LINE
8
BLACK
6
CONTINUOUS
10
19.293
20
-109.319
11
18.6739
21
-109.319
0
LINE
8
BLACK
6
CONTINUOUS
10
138.58
20
-80.8262
11
138.27
21
-80.8262
0
LINE
8
BLACK
6
CONTINUOUS
10
138.27
20
-80.8262
11
138.437
21
-81.0167
0
LINE
8
BLACK
6
CONTINUOUS
10
138.437
20
-81.0167
11
138.366
21
-81.0167
0
LINE
8
BLACK
6
CONTINUOUS
10
138.366
20
-81.0167
11
138.318
21
-81.0405
0
LINE
8
BLACK
6
CONTINUOUS
10
138.318
20
-81.0405
11
138.294
21
-81.0643
0
LINE
8
BLACK
6
CONTINUOUS
10
138.294
20
-81.0643
11
138.27
21
-81.1119
0
LINE
8
BLACK
6
CONTINUOUS
10
138.27
20
-81.1119
11
138.27
21
-81.231
0
LINE
8
BLACK
6
CONTINUOUS
10
138.27
20
-81.231
11
138.294
21
-81.2786
0
LINE
8
BLACK
6
CONTINUOUS
10
138.294
20
-81.2786
11
138.318
21
-81.3024
0
LINE
8
BLACK
6
CONTINUOUS
10
138.318
20
-81.3024
11
138.366
21
-81.3262
0
LINE
8
BLACK
6
CONTINUOUS
10
138.366
20
-81.3262
11
138.508
21
-81.3262
0
LINE
8
BLACK
6
CONTINUOUS
10
138.508
20
-81.3262
11
138.556
21
-81.3024
0
LINE
8
BLACK
6
CONTINUOUS
10
138.556
20
-81.3024
11
138.58
21
-81.2786
0
LINE
8
BLACK
6
CONTINUOUS
10
138.056
20
-81.2786
11
138.032
21
-81.3024
0
LINE
8
BLACK
6
CONTINUOUS
10
138.032
20
-81.3024
11
138.056
21
-81.3262
0
LINE
8
BLACK
6
CONTINUOUS
10
138.056
20
-81.3262
11
138.08
21
-81.3024
0
LINE
8
BLACK
6
CONTINUOUS
10
138.08
20
-81.3024
11
138.056
21
-81.2786
0
LINE
8
BLACK
6
CONTINUOUS
10
138.056
20
-81.2786
11
138.056
21
-81.3262
0
LINE
8
BLACK
6
CONTINUOUS
10
137.866
20
-80.8262
11
137.532
21
-80.8262
0
LINE
8
BLACK
6
CONTINUOUS
10
137.532
20
-80.8262
11
137.746
21
-81.3262
0
LINE
8
BLACK
6
CONTINUOUS
10
137.413
20
-80.8262
11
137.246
21
-81.3262
0
LINE
8
BLACK
6
CONTINUOUS
10
137.246
20
-81.3262
11
137.08
21
-80.8262
0
LINE
8
BLACK
6
CONTINUOUS
10
136.294
20
-81.3262
11
136.532
21
-81.3262
0
LINE
8
BLACK
6
CONTINUOUS
10
136.532
20
-81.3262
11
136.532
21
-80.8262
0
LINE
8
BLACK
6
CONTINUOUS
10
136.127
20
-81.3262
11
136.127
21
-80.9929
0
LINE
8
BLACK
6
CONTINUOUS
10
136.127
20
-80.8262
11
136.151
21
-80.85
0
LINE
8
BLACK
6
CONTINUOUS
10
136.151
20
-80.85
11
136.127
21
-80.8738
0
LINE
8
BLACK
6
CONTINUOUS
10
136.127
20
-80.8738
11
136.104
21
-80.85
0
LINE
8
BLACK
6
CONTINUOUS
10
136.104
20
-80.85
11
136.127
21
-80.8262
0
LINE
8
BLACK
6
CONTINUOUS
10
136.127
20
-80.8262
11
136.127
21
-80.8738
0
LINE
8
BLACK
6
CONTINUOUS
10
135.889
20
-81.3262
11
135.889
21
-80.9929
0
LINE
8
BLACK
6
CONTINUOUS
10
135.889
20
-80.8262
11
135.913
21
-80.85
0
LINE
8
BLACK
6
CONTINUOUS
10
135.913
20
-80.85
11
135.889
21
-80.8738
0
LINE
8
BLACK
6
CONTINUOUS
10
135.889
20
-80.8738
11
135.866
21
-80.85
0
LINE
8
BLACK
6
CONTINUOUS
10
135.866
20
-80.85
11
135.889
21
-80.8262
0
LINE
8
BLACK
6
CONTINUOUS
10
135.889
20
-80.8262
11
135.889
21
-80.8738
0
LINE
8
BLACK
6
CONTINUOUS
10
135.58
20
-81.3262
11
135.627
21
-81.3024
0
LINE
8
BLACK
6
CONTINUOUS
10
135.627
20
-81.3024
11
135.651
21
-81.2786
0
LINE
8
BLACK
6
CONTINUOUS
10
135.651
20
-81.2786
11
135.675
21
-81.231
0
LINE
8
BLACK
6
CONTINUOUS
10
135.675
20
-81.231
11
135.675
21
-81.0881
0
LINE
8
BLACK
6
CONTINUOUS
10
135.675
20
-81.0881
11
135.651
21
-81.0405
0
LINE
8
BLACK
6
CONTINUOUS
10
135.651
20
-81.0405
11
135.627
21
-81.0167
0
LINE
8
BLACK
6
CONTINUOUS
10
135.627
20
-81.0167
11
135.58
21
-80.9929
0
LINE
8
BLACK
6
CONTINUOUS
10
135.58
20
-80.9929
11
135.508
21
-80.9929
0
LINE
8
BLACK
6
CONTINUOUS
10
135.508
20
-80.9929
11
135.461
21
-81.0167
0
LINE
8
BLACK
6
CONTINUOUS
10
135.461
20
-81.0167
11
135.437
21
-81.0405
0
LINE
8
BLACK
6
CONTINUOUS
10
135.437
20
-81.0405
11
135.413
21
-81.0881
0
LINE
8
BLACK
6
CONTINUOUS
10
135.413
20
-81.0881
11
135.413
21
-81.231
0
LINE
8
BLACK
6
CONTINUOUS
10
135.413
20
-81.231
11
135.437
21
-81.2786
0
LINE
8
BLACK
6
CONTINUOUS
10
135.437
20
-81.2786
11
135.461
21
-81.3024
0
LINE
8
BLACK
6
CONTINUOUS
10
135.461
20
-81.3024
11
135.508
21
-81.3262
0
LINE
8
BLACK
6
CONTINUOUS
10
135.508
20
-81.3262
11
135.58
21
-81.3262
0
LINE
8
BLACK
6
CONTINUOUS
10
135.199
20
-80.9929
11
135.199
21
-81.3262
0
LINE
8
BLACK
6
CONTINUOUS
10
135.199
20
-81.0405
11
135.175
21
-81.0167
0
LINE
8
BLACK
6
CONTINUOUS
10
135.175
20
-81.0167
11
135.127
21
-80.9929
0
LINE
8
BLACK
6
CONTINUOUS
10
135.127
20
-80.9929
11
135.056
21
-80.9929
0
LINE
8
BLACK
6
CONTINUOUS
10
135.056
20
-80.9929
11
135.008
21
-81.0167
0
LINE
8
BLACK
6
CONTINUOUS
10
135.008
20
-81.0167
11
134.985
21
-81.0643
0
LINE
8
BLACK
6
CONTINUOUS
10
134.985
20
-81.0643
11
134.985
21
-81.3262
0
LINE
8
BLACK
6
CONTINUOUS
10
134.389
20
-80.8024
11
134.818
21
-81.4452
0
LINE
8
BLACK
6
CONTINUOUS
10
133.985
20
-81.3262
11
134.223
21
-81.3262
0
LINE
8
BLACK
6
CONTINUOUS
10
134.223
20
-81.3262
11
134.223
21
-80.8262
0
LINE
8
BLACK
6
CONTINUOUS
10
133.818
20
-81.3262
11
133.818
21
-80.9929
0
LINE
8
BLACK
6
CONTINUOUS
10
133.818
20
-80.8262
11
133.842
21
-80.85
0
LINE
8
BLACK
6
CONTINUOUS
10
133.842
20
-80.85
11
133.818
21
-80.8738
0
LINE
8
BLACK
6
CONTINUOUS
10
133.818
20
-80.8738
11
133.794
21
-80.85
0
LINE
8
BLACK
6
CONTINUOUS
10
133.794
20
-80.85
11
133.818
21
-80.8262
0
LINE
8
BLACK
6
CONTINUOUS
10
133.818
20
-80.8262
11
133.818
21
-80.8738
0
LINE
8
BLACK
6
CONTINUOUS
10
133.58
20
-80.9929
11
133.58
21
-81.4929
0
LINE
8
BLACK
6
CONTINUOUS
10
133.58
20
-81.0167
11
133.532
21
-80.9929
0
LINE
8
BLACK
6
CONTINUOUS
10
133.532
20
-80.9929
11
133.437
21
-80.9929
0
LINE
8
BLACK
6
CONTINUOUS
10
133.437
20
-80.9929
11
133.389
21
-81.0167
0
LINE
8
BLACK
6
CONTINUOUS
10
133.389
20
-81.0167
11
133.366
21
-81.0405
0
LINE
8
BLACK
6
CONTINUOUS
10
133.366
20
-81.0405
11
133.342
21
-81.0881
0
LINE
8
BLACK
6
CONTINUOUS
10
133.342
20
-81.0881
11
133.342
21
-81.231
0
LINE
8
BLACK
6
CONTINUOUS
10
133.342
20
-81.231
11
133.366
21
-81.2786
0
LINE
8
BLACK
6
CONTINUOUS
10
133.366
20
-81.2786
11
133.389
21
-81.3024
0
LINE
8
BLACK
6
CONTINUOUS
10
133.389
20
-81.3024
11
133.437
21
-81.3262
0
LINE
8
BLACK
6
CONTINUOUS
10
133.437
20
-81.3262
11
133.532
21
-81.3262
0
LINE
8
BLACK
6
CONTINUOUS
10
133.532
20
-81.3262
11
133.58
21
-81.3024
0
LINE
8
BLACK
6
CONTINUOUS
10
133.056
20
-81.3262
11
133.104
21
-81.3024
0
LINE
8
BLACK
6
CONTINUOUS
10
133.104
20
-81.3024
11
133.127
21
-81.2786
0
LINE
8
BLACK
6
CONTINUOUS
10
133.127
20
-81.2786
11
133.151
21
-81.231
0
LINE
8
BLACK
6
CONTINUOUS
10
133.151
20
-81.231
11
133.151
21
-81.0881
0
LINE
8
BLACK
6
CONTINUOUS
10
133.151
20
-81.0881
11
133.127
21
-81.0405
0
LINE
8
BLACK
6
CONTINUOUS
10
133.127
20
-81.0405
11
133.104
21
-81.0167
0
LINE
8
BLACK
6
CONTINUOUS
10
133.104
20
-81.0167
11
133.056
21
-80.9929
0
LINE
8
BLACK
6
CONTINUOUS
10
133.056
20
-80.9929
11
132.985
21
-80.9929
0
LINE
8
BLACK
6
CONTINUOUS
10
132.985
20
-80.9929
11
132.937
21
-81.0167
0
LINE
8
BLACK
6
CONTINUOUS
10
132.937
20
-81.0167
11
132.913
21
-81.0405
0
LINE
8
BLACK
6
CONTINUOUS
10
132.913
20
-81.0405
11
132.889
21
-81.0881
0
LINE
8
BLACK
6
CONTINUOUS
10
132.889
20
-81.0881
11
132.889
21
-81.231
0
LINE
8
BLACK
6
CONTINUOUS
10
132.889
20
-81.231
11
132.913
21
-81.2786
0
LINE
8
BLACK
6
CONTINUOUS
10
132.913
20
-81.2786
11
132.937
21
-81.3024
0
LINE
8
BLACK
6
CONTINUOUS
10
132.937
20
-81.3024
11
132.985
21
-81.3262
0
LINE
8
BLACK
6
CONTINUOUS
10
132.985
20
-81.3262
11
133.056
21
-81.3262
0
LINE
8
BLACK
6
CONTINUOUS
10
132.604
20
-81.3262
11
132.651
21
-81.3024
0
LINE
8
BLACK
6
CONTINUOUS
10
132.651
20
-81.3024
11
132.675
21
-81.2548
0
LINE
8
BLACK
6
CONTINUOUS
10
132.675
20
-81.2548
11
132.675
21
-80.8262
0
LINE
8
BLACK
6
CONTINUOUS
10
132.461
20
-80.9929
11
132.342
21
-81.3262
0
LINE
8
BLACK
6
CONTINUOUS
10
132.223
20
-80.9929
11
132.342
21
-81.3262
0
LINE
8
BLACK
6
CONTINUOUS
10
132.342
20
-81.3262
11
132.389
21
-81.4452
0
LINE
8
BLACK
6
CONTINUOUS
10
132.389
20
-81.4452
11
132.413
21
-81.469
0
LINE
8
BLACK
6
CONTINUOUS
10
132.413
20
-81.469
11
132.461
21
-81.4929
0
LINE
8
BLACK
6
CONTINUOUS
10
150.643
20
-80.2362
11
150.643
21
-81.76
0
LINE
8
BLACK
6
CONTINUOUS
10
147.958
20
-87.9429
11
147.844
21
-87.981
0
LINE
8
BLACK
6
CONTINUOUS
10
147.844
20
-87.981
11
147.806
21
-88.019
0
LINE
8
BLACK
6
CONTINUOUS
10
147.806
20
-88.019
11
147.768
21
-88.0952
0
LINE
8
BLACK
6
CONTINUOUS
10
147.768
20
-88.0952
11
147.768
21
-88.2095
0
LINE
8
BLACK
6
CONTINUOUS
10
147.768
20
-88.2095
11
147.806
21
-88.2857
0
LINE
8
BLACK
6
CONTINUOUS
10
147.806
20
-88.2857
11
147.844
21
-88.3238
0
LINE
8
BLACK
6
CONTINUOUS
10
147.844
20
-88.3238
11
147.92
21
-88.3619
0
LINE
8
BLACK
6
CONTINUOUS
10
147.92
20
-88.3619
11
148.225
21
-88.3619
0
LINE
8
BLACK
6
CONTINUOUS
10
148.225
20
-88.3619
11
148.225
21
-87.5619
0
LINE
8
BLACK
6
CONTINUOUS
10
148.225
20
-87.5619
11
147.958
21
-87.5619
0
LINE
8
BLACK
6
CONTINUOUS
10
147.958
20
-87.5619
11
147.882
21
-87.6
0
LINE
8
BLACK
6
CONTINUOUS
10
147.882
20
-87.6
11
147.844
21
-87.6381
0
LINE
8
BLACK
6
CONTINUOUS
10
147.844
20
-87.6381
11
147.806
21
-87.7143
0
LINE
8
BLACK
6
CONTINUOUS
10
147.806
20
-87.7143
11
147.806
21
-87.7905
0
LINE
8
BLACK
6
CONTINUOUS
10
147.806
20
-87.7905
11
147.844
21
-87.8667
0
LINE
8
BLACK
6
CONTINUOUS
10
147.844
20
-87.8667
11
147.882
21
-87.9048
0
LINE
8
BLACK
6
CONTINUOUS
10
147.882
20
-87.9048
11
147.958
21
-87.9429
0
LINE
8
BLACK
6
CONTINUOUS
10
147.958
20
-87.9429
11
148.225
21
-87.9429
0
LINE
8
BLACK
6
CONTINUOUS
10
147.082
20
-88.3619
11
147.082
21
-87.9429
0
LINE
8
BLACK
6
CONTINUOUS
10
147.082
20
-87.9429
11
147.12
21
-87.8667
0
LINE
8
BLACK
6
CONTINUOUS
10
147.12
20
-87.8667
11
147.196
21
-87.8286
0
LINE
8
BLACK
6
CONTINUOUS
10
147.196
20
-87.8286
11
147.349
21
-87.8286
0
LINE
8
BLACK
6
CONTINUOUS
10
147.349
20
-87.8286
11
147.425
21
-87.8667
0
LINE
8
BLACK
6
CONTINUOUS
10
147.082
20
-88.3238
11
147.158
21
-88.3619
0
LINE
8
BLACK
6
CONTINUOUS
10
147.158
20
-88.3619
11
147.349
21
-88.3619
0
LINE
8
BLACK
6
CONTINUOUS
10
147.349
20
-88.3619
11
147.425
21
-88.3238
0
LINE
8
BLACK
6
CONTINUOUS
10
147.425
20
-88.3238
11
147.463
21
-88.2476
0
LINE
8
BLACK
6
CONTINUOUS
10
147.463
20
-88.2476
11
147.463
21
-88.1714
0
LINE
8
BLACK
6
CONTINUOUS
10
147.463
20
-88.1714
11
147.425
21
-88.0952
0
LINE
8
BLACK
6
CONTINUOUS
10
147.425
20
-88.0952
11
147.349
21
-88.0571
0
LINE
8
BLACK
6
CONTINUOUS
10
147.349
20
-88.0571
11
147.158
21
-88.0571
0
LINE
8
BLACK
6
CONTINUOUS
10
147.158
20
-88.0571
11
147.082
21
-88.019
0
LINE
8
BLACK
6
CONTINUOUS
10
146.815
20
-87.8286
11
146.511
21
-87.8286
0
LINE
8
BLACK
6
CONTINUOUS
10
146.701
20
-87.5619
11
146.701
21
-88.2476
0
LINE
8
BLACK
6
CONTINUOUS
10
146.701
20
-88.2476
11
146.663
21
-88.3238
0
LINE
8
BLACK
6
CONTINUOUS
10
146.663
20
-88.3238
11
146.587
21
-88.3619
0
LINE
8
BLACK
6
CONTINUOUS
10
146.587
20
-88.3619
11
146.511
21
-88.3619
0
LINE
8
BLACK
6
CONTINUOUS
10
146.358
20
-87.8286
11
146.054
21
-87.8286
0
LINE
8
BLACK
6
CONTINUOUS
10
146.244
20
-87.5619
11
146.244
21
-88.2476
0
LINE
8
BLACK
6
CONTINUOUS
10
146.244
20
-88.2476
11
146.206
21
-88.3238
0
LINE
8
BLACK
6
CONTINUOUS
10
146.206
20
-88.3238
11
146.13
21
-88.3619
0
LINE
8
BLACK
6
CONTINUOUS
10
146.13
20
-88.3619
11
146.054
21
-88.3619
0
LINE
8
BLACK
6
CONTINUOUS
10
145.482
20
-88.3238
11
145.558
21
-88.3619
0
LINE
8
BLACK
6
CONTINUOUS
10
145.558
20
-88.3619
11
145.711
21
-88.3619
0
LINE
8
BLACK
6
CONTINUOUS
10
145.711
20
-88.3619
11
145.787
21
-88.3238
0
LINE
8
BLACK
6
CONTINUOUS
10
145.787
20
-88.3238
11
145.825
21
-88.2476
0
LINE
8
BLACK
6
CONTINUOUS
10
145.825
20
-88.2476
11
145.825
21
-87.9429
0
LINE
8
BLACK
6
CONTINUOUS
10
145.825
20
-87.9429
11
145.787
21
-87.8667
0
LINE
8
BLACK
6
CONTINUOUS
10
145.787
20
-87.8667
11
145.711
21
-87.8286
0
LINE
8
BLACK
6
CONTINUOUS
10
145.711
20
-87.8286
11
145.558
21
-87.8286
0
LINE
8
BLACK
6
CONTINUOUS
10
145.558
20
-87.8286
11
145.482
21
-87.8667
0
LINE
8
BLACK
6
CONTINUOUS
10
145.482
20
-87.8667
11
145.444
21
-87.9429
0
LINE
8
BLACK
6
CONTINUOUS
10
145.444
20
-87.9429
11
145.444
21
-88.019
0
LINE
8
BLACK
6
CONTINUOUS
10
145.444
20
-88.019
11
145.825
21
-88.0952
0
LINE
8
BLACK
6
CONTINUOUS
10
145.101
20
-88.3619
11
145.101
21
-87.8286
0
LINE
8
BLACK
6
CONTINUOUS
10
145.101
20
-87.981
11
145.063
21
-87.9048
0
LINE
8
BLACK
6
CONTINUOUS
10
145.063
20
-87.9048
11
145.025
21
-87.8667
0
LINE
8
BLACK
6
CONTINUOUS
10
145.025
20
-87.8667
11
144.949
21
-87.8286
0
LINE
8
BLACK
6
CONTINUOUS
10
144.949
20
-87.8286
11
144.873
21
-87.8286
0
LINE
8
BLACK
6
CONTINUOUS
10
144.682
20
-87.8286
11
144.492
21
-88.3619
0
LINE
8
BLACK
6
CONTINUOUS
10
144.301
20
-87.8286
11
144.492
21
-88.3619
0
LINE
8
BLACK
6
CONTINUOUS
10
144.492
20
-88.3619
11
144.568
21
-88.5524
0
LINE
8
BLACK
6
CONTINUOUS
10
144.568
20
-88.5524
11
144.606
21
-88.5905
0
LINE
8
BLACK
6
CONTINUOUS
10
144.606
20
-88.5905
11
144.682
21
-88.6286
0
LINE
8
BLACK
6
CONTINUOUS
10
143.273
20
-88.3619
11
143.349
21
-88.3238
0
LINE
8
BLACK
6
CONTINUOUS
10
143.349
20
-88.3238
11
143.387
21
-88.2857
0
LINE
8
BLACK
6
CONTINUOUS
10
143.387
20
-88.2857
11
143.425
21
-88.2095
0
LINE
8
BLACK
6
CONTINUOUS
10
143.425
20
-88.2095
11
143.425
21
-87.981
0
LINE
8
BLACK
6
CONTINUOUS
10
143.425
20
-87.981
11
143.387
21
-87.9048
0
LINE
8
BLACK
6
CONTINUOUS
10
143.387
20
-87.9048
11
143.349
21
-87.8667
0
LINE
8
BLACK
6
CONTINUOUS
10
143.349
20
-87.8667
11
143.273
21
-87.8286
0
LINE
8
BLACK
6
CONTINUOUS
10
143.273
20
-87.8286
11
143.158
21
-87.8286
0
LINE
8
BLACK
6
CONTINUOUS
10
143.158
20
-87.8286
11
143.082
21
-87.8667
0
LINE
8
BLACK
6
CONTINUOUS
10
143.082
20
-87.8667
11
143.044
21
-87.9048
0
LINE
8
BLACK
6
CONTINUOUS
10
143.044
20
-87.9048
11
143.006
21
-87.981
0
LINE
8
BLACK
6
CONTINUOUS
10
143.006
20
-87.981
11
143.006
21
-88.2095
0
LINE
8
BLACK
6
CONTINUOUS
10
143.006
20
-88.2095
11
143.044
21
-88.2857
0
LINE
8
BLACK
6
CONTINUOUS
10
143.044
20
-88.2857
11
143.082
21
-88.3238
0
LINE
8
BLACK
6
CONTINUOUS
10
143.082
20
-88.3238
11
143.158
21
-88.3619
0
LINE
8
BLACK
6
CONTINUOUS
10
143.158
20
-88.3619
11
143.273
21
-88.3619
0
LINE
8
BLACK
6
CONTINUOUS
10
142.32
20
-87.8286
11
142.32
21
-88.3619
0
LINE
8
BLACK
6
CONTINUOUS
10
142.663
20
-87.8286
11
142.663
21
-88.2476
0
LINE
8
BLACK
6
CONTINUOUS
10
142.663
20
-88.2476
11
142.625
21
-88.3238
0
LINE
8
BLACK
6
CONTINUOUS
10
142.625
20
-88.3238
11
142.549
21
-88.3619
0
LINE
8
BLACK
6
CONTINUOUS
10
142.549
20
-88.3619
11
142.435
21
-88.3619
0
LINE
8
BLACK
6
CONTINUOUS
10
142.435
20
-88.3619
11
142.358
21
-88.3238
0
LINE
8
BLACK
6
CONTINUOUS
10
142.358
20
-88.3238
11
142.32
21
-88.2857
0
LINE
8
BLACK
6
CONTINUOUS
10
142.054
20
-87.8286
11
141.749
21
-87.8286
0
LINE
8
BLACK
6
CONTINUOUS
10
141.939
20
-87.5619
11
141.939
21
-88.2476
0
LINE
8
BLACK
6
CONTINUOUS
10
141.939
20
-88.2476
11
141.901
21
-88.3238
0
LINE
8
BLACK
6
CONTINUOUS
10
141.901
20
-88.3238
11
141.825
21
-88.3619
0
LINE
8
BLACK
6
CONTINUOUS
10
141.825
20
-88.3619
11
141.749
21
-88.3619
0
LINE
8
BLACK
6
CONTINUOUS
10
141.368
20
-88.3619
11
141.444
21
-88.3238
0
LINE
8
BLACK
6
CONTINUOUS
10
141.444
20
-88.3238
11
141.482
21
-88.2476
0
LINE
8
BLACK
6
CONTINUOUS
10
141.482
20
-88.2476
11
141.482
21
-87.5619
0
LINE
8
BLACK
6
CONTINUOUS
10
141.063
20
-88.3619
11
141.063
21
-87.8286
0
LINE
8
BLACK
6
CONTINUOUS
10
141.063
20
-87.5619
11
141.101
21
-87.6
0
LINE
8
BLACK
6
CONTINUOUS
10
141.101
20
-87.6
11
141.063
21
-87.6381
0
LINE
8
BLACK
6
CONTINUOUS
10
141.063
20
-87.6381
11
141.025
21
-87.6
0
LINE
8
BLACK
6
CONTINUOUS
10
141.025
20
-87.6
11
141.063
21
-87.5619
0
LINE
8
BLACK
6
CONTINUOUS
10
141.063
20
-87.5619
11
141.063
21
-87.6381
0
LINE
8
BLACK
6
CONTINUOUS
10
140.682
20
-87.8286
11
140.682
21
-88.3619
0
LINE
8
BLACK
6
CONTINUOUS
10
140.682
20
-87.9048
11
140.644
21
-87.8667
0
LINE
8
BLACK
6
CONTINUOUS
10
140.644
20
-87.8667
11
140.568
21
-87.8286
0
LINE
8
BLACK
6
CONTINUOUS
10
140.568
20
-87.8286
11
140.454
21
-87.8286
0
LINE
8
BLACK
6
CONTINUOUS
10
140.454
20
-87.8286
11
140.377
21
-87.8667
0
LINE
8
BLACK
6
CONTINUOUS
10
140.377
20
-87.8667
11
140.339
21
-87.9429
0
LINE
8
BLACK
6
CONTINUOUS
10
140.339
20
-87.9429
11
140.339
21
-88.3619
0
LINE
8
BLACK
6
CONTINUOUS
10
139.654
20
-88.3238
11
139.73
21
-88.3619
0
LINE
8
BLACK
6
CONTINUOUS
10
139.73
20
-88.3619
11
139.882
21
-88.3619
0
LINE
8
BLACK
6
CONTINUOUS
10
139.882
20
-88.3619
11
139.958
21
-88.3238
0
LINE
8
BLACK
6
CONTINUOUS
10
139.958
20
-88.3238
11
139.996
21
-88.2476
0
LINE
8
BLACK
6
CONTINUOUS
10
139.996
20
-88.2476
11
139.996
21
-87.9429
0
LINE
8
BLACK
6
CONTINUOUS
10
139.996
20
-87.9429
11
139.958
21
-87.8667
0
LINE
8
BLACK
6
CONTINUOUS
10
139.958
20
-87.8667
11
139.882
21
-87.8286
0
LINE
8
BLACK
6
CONTINUOUS
10
139.882
20
-87.8286
11
139.73
21
-87.8286
0
LINE
8
BLACK
6
CONTINUOUS
10
139.73
20
-87.8286
11
139.654
21
-87.8667
0
LINE
8
BLACK
6
CONTINUOUS
10
139.654
20
-87.8667
11
139.615
21
-87.9429
0
LINE
8
BLACK
6
CONTINUOUS
10
139.615
20
-87.9429
11
139.615
21
-88.019
0
LINE
8
BLACK
6
CONTINUOUS
10
139.615
20
-88.019
11
139.996
21
-88.0952
0
LINE
8
BLACK
6
CONTINUOUS
10
150.643
20
-83.7362
11
150.643
21
-85.26
0
LINE
8
BLACK
6
CONTINUOUS
10
151.405
20
-84.4981
11
149.881
21
-84.4981
0
LINE
8
BLACK
6
CONTINUOUS
10
138.331
20
-79.9286
11
138.188
21
-79.9762
0
LINE
8
BLACK
6
CONTINUOUS
10
138.188
20
-79.9762
11
138.141
21
-80.0238
0
LINE
8
BLACK
6
CONTINUOUS
10
138.141
20
-80.0238
11
138.093
21
-80.119
0
LINE
8
BLACK
6
CONTINUOUS
10
138.093
20
-80.119
11
138.093
21
-80.2619
0
LINE
8
BLACK
6
CONTINUOUS
10
138.093
20
-80.2619
11
138.141
21
-80.3571
0
LINE
8
BLACK
6
CONTINUOUS
10
138.141
20
-80.3571
11
138.188
21
-80.4048
0
LINE
8
BLACK
6
CONTINUOUS
10
138.188
20
-80.4048
11
138.283
21
-80.4524
0
LINE
8
BLACK
6
CONTINUOUS
10
138.283
20
-80.4524
11
138.664
21
-80.4524
0
LINE
8
BLACK
6
CONTINUOUS
10
138.664
20
-80.4524
11
138.664
21
-79.4524
0
LINE
8
BLACK
6
CONTINUOUS
10
138.664
20
-79.4524
11
138.331
21
-79.4524
0
LINE
8
BLACK
6
CONTINUOUS
10
138.331
20
-79.4524
11
138.236
21
-79.5
0
LINE
8
BLACK
6
CONTINUOUS
10
138.236
20
-79.5
11
138.188
21
-79.5476
0
LINE
8
BLACK
6
CONTINUOUS
10
138.188
20
-79.5476
11
138.141
21
-79.6429
0
LINE
8
BLACK
6
CONTINUOUS
10
138.141
20
-79.6429
11
138.141
21
-79.7381
0
LINE
8
BLACK
6
CONTINUOUS
10
138.141
20
-79.7381
11
138.188
21
-79.8333
0
LINE
8
BLACK
6
CONTINUOUS
10
138.188
20
-79.8333
11
138.236
21
-79.881
0
LINE
8
BLACK
6
CONTINUOUS
10
138.236
20
-79.881
11
138.331
21
-79.9286
0
LINE
8
BLACK
6
CONTINUOUS
10
138.331
20
-79.9286
11
138.664
21
-79.9286
0
LINE
8
BLACK
6
CONTINUOUS
10
137.236
20
-80.4524
11
137.236
21
-79.9286
0
LINE
8
BLACK
6
CONTINUOUS
10
137.236
20
-79.9286
11
137.283
21
-79.8333
0
LINE
8
BLACK
6
CONTINUOUS
10
137.283
20
-79.8333
11
137.379
21
-79.7857
0
LINE
8
BLACK
6
CONTINUOUS
10
137.379
20
-79.7857
11
137.569
21
-79.7857
0
LINE
8
BLACK
6
CONTINUOUS
10
137.569
20
-79.7857
11
137.664
21
-79.8333
0
LINE
8
BLACK
6
CONTINUOUS
10
137.236
20
-80.4048
11
137.331
21
-80.4524
0
LINE
8
BLACK
6
CONTINUOUS
10
137.331
20
-80.4524
11
137.569
21
-80.4524
0
LINE
8
BLACK
6
CONTINUOUS
10
137.569
20
-80.4524
11
137.664
21
-80.4048
0
LINE
8
BLACK
6
CONTINUOUS
10
137.664
20
-80.4048
11
137.712
21
-80.3095
0
LINE
8
BLACK
6
CONTINUOUS
10
137.712
20
-80.3095
11
137.712
21
-80.2143
0
LINE
8
BLACK
6
CONTINUOUS
10
137.712
20
-80.2143
11
137.664
21
-80.119
0
LINE
8
BLACK
6
CONTINUOUS
10
137.664
20
-80.119
11
137.569
21
-80.0714
0
LINE
8
BLACK
6
CONTINUOUS
10
137.569
20
-80.0714
11
137.331
21
-80.0714
0
LINE
8
BLACK
6
CONTINUOUS
10
137.331
20
-80.0714
11
137.236
21
-80.0238
0
LINE
8
BLACK
6
CONTINUOUS
10
136.903
20
-79.7857
11
136.522
21
-79.7857
0
LINE
8
BLACK
6
CONTINUOUS
10
136.76
20
-79.4524
11
136.76
21
-80.3095
0
LINE
8
BLACK
6
CONTINUOUS
10
136.76
20
-80.3095
11
136.712
21
-80.4048
0
LINE
8
BLACK
6
CONTINUOUS
10
136.712
20
-80.4048
11
136.617
21
-80.4524
0
LINE
8
BLACK
6
CONTINUOUS
10
136.617
20
-80.4524
11
136.522
21
-80.4524
0
LINE
8
BLACK
6
CONTINUOUS
10
136.331
20
-79.7857
11
135.95
21
-79.7857
0
LINE
8
BLACK
6
CONTINUOUS
10
136.188
20
-79.4524
11
136.188
21
-80.3095
0
LINE
8
BLACK
6
CONTINUOUS
10
136.188
20
-80.3095
11
136.141
21
-80.4048
0
LINE
8
BLACK
6
CONTINUOUS
10
136.141
20
-80.4048
11
136.045
21
-80.4524
0
LINE
8
BLACK
6
CONTINUOUS
10
136.045
20
-80.4524
11
135.95
21
-80.4524
0
LINE
8
BLACK
6
CONTINUOUS
10
135.236
20
-80.4048
11
135.331
21
-80.4524
0
LINE
8
BLACK
6
CONTINUOUS
10
135.331
20
-80.4524
11
135.522
21
-80.4524
0
LINE
8
BLACK
6
CONTINUOUS
10
135.522
20
-80.4524
11
135.617
21
-80.4048
0
LINE
8
BLACK
6
CONTINUOUS
10
135.617
20
-80.4048
11
135.664
21
-80.3095
0
LINE
8
BLACK
6
CONTINUOUS
10
135.664
20
-80.3095
11
135.664
21
-79.9286
0
LINE
8
BLACK
6
CONTINUOUS
10
135.664
20
-79.9286
11
135.617
21
-79.8333
0
LINE
8
BLACK
6
CONTINUOUS
10
135.617
20
-79.8333
11
135.522
21
-79.7857
0
LINE
8
BLACK
6
CONTINUOUS
10
135.522
20
-79.7857
11
135.331
21
-79.7857
0
LINE
8
BLACK
6
CONTINUOUS
10
135.331
20
-79.7857
11
135.236
21
-79.8333
0
LINE
8
BLACK
6
CONTINUOUS
10
135.236
20
-79.8333
11
135.188
21
-79.9286
0
LINE
8
BLACK
6
CONTINUOUS
10
135.188
20
-79.9286
11
135.188
21
-80.0238
0
LINE
8
BLACK
6
CONTINUOUS
10
135.188
20
-80.0238
11
135.664
21
-80.119
0
LINE
8
BLACK
6
CONTINUOUS
10
134.76
20
-80.4524
11
134.76
21
-79.7857
0
LINE
8
BLACK
6
CONTINUOUS
10
134.76
20
-79.9762
11
134.712
21
-79.881
0
LINE
8
BLACK
6
CONTINUOUS
10
134.712
20
-79.881
11
134.664
21
-79.8333
0
LINE
8
BLACK
6
CONTINUOUS
10
134.664
20
-79.8333
11
134.569
21
-79.7857
0
LINE
8
BLACK
6
CONTINUOUS
10
134.569
20
-79.7857
11
134.474
21
-79.7857
0
LINE
8
BLACK
6
CONTINUOUS
10
134.236
20
-79.7857
11
133.998
21
-80.4524
0
LINE
8
BLACK
6
CONTINUOUS
10
133.76
20
-79.7857
11
133.998
21
-80.4524
0
LINE
8
BLACK
6
CONTINUOUS
10
133.998
20
-80.4524
11
134.093
21
-80.6905
0
LINE
8
BLACK
6
CONTINUOUS
10
134.093
20
-80.6905
11
134.141
21
-80.7381
0
LINE
8
BLACK
6
CONTINUOUS
10
134.141
20
-80.7381
11
134.236
21
-80.7857
0
LINE
8
BLACK
6
CONTINUOUS
10
146.857
20
-80.4
11
146.857
21
-81.4
0
LINE
8
BLACK
6
CONTINUOUS
10
145.257
20
-80.4
11
146.857
21
-80.4
0
LINE
8
BLACK
6
CONTINUOUS
10
146.857
20
-84
11
145.257
21
-84
0
LINE
8
BLACK
6
CONTINUOUS
10
142.897
20
-84.84
11
142.897
21
-84.56
0
LINE
8
BLACK
6
CONTINUOUS
10
145.257
20
-84
11
145.257
21
-85
0
LINE
8
BLACK
6
CONTINUOUS
10
142.897
20
-80.84
11
142.897
21
-80.56
0
LINE
8
BLACK
6
CONTINUOUS
10
145.257
20
-81.4
11
145.257
21
-80.4
0
LINE
8
BLACK
6
CONTINUOUS
10
142.897
20
-80.84
11
141.683
21
-80.84
0
LINE
8
BLACK
6
CONTINUOUS
10
149.118
20
-82.2
11
144.757
21
-82.2
0
LINE
8
BLACK
6
CONTINUOUS
10
144.757
20
-82.2
11
144.757
21
-83.2
0
LINE
8
BLACK
6
CONTINUOUS
10
142.897
20
-85.76
11
142.897
21
-84.84
0
LINE
8
BLACK
6
CONTINUOUS
10
141.297
20
-85.76
11
141.297
21
-84.84
0
LINE
8
BLACK
6
CONTINUOUS
10
146.857
20
-80.9
11
149.118
21
-80.9
0
LINE
8
BLACK
6
CONTINUOUS
10
141.297
20
-84.84
11
142.897
21
-84.84
0
LINE
8
BLACK
6
CONTINUOUS
10
146.857
20
-81.4
11
149.118
21
-81.4
0
LINE
8
BLACK
6
CONTINUOUS
10
149.118
20
-85.76
11
141.297
21
-85.76
0
LINE
8
BLACK
6
CONTINUOUS
10
142.897
20
-79.64
11
142.897
21
-80.56
0
LINE
8
BLACK
6
CONTINUOUS
10
144.757
20
-83.2
11
149.118
21
-83.2
0
LINE
8
BLACK
6
CONTINUOUS
10
146.857
20
-81.4
11
145.257
21
-81.4
0
LINE
8
BLACK
6
CONTINUOUS
10
141.297
20
-80.56
11
141.297
21
-79.64
0
LINE
8
BLACK
6
CONTINUOUS
10
149.118
20
-79.64
11
149.118
21
-85.76
0
LINE
8
BLACK
6
CONTINUOUS
10
142.897
20
-80.56
11
141.297
21
-80.56
0
LINE
8
BLACK
6
CONTINUOUS
10
146.857
20
-85
11
146.857
21
-84
0
LINE
8
BLACK
6
CONTINUOUS
10
145.257
20
-85
11
146.857
21
-85
0
LINE
8
BLACK
6
CONTINUOUS
10
141.297
20
-79.64
11
149.118
21
-79.64
0
CIRCLE
8
WHITE
10
104
20
-75
40
0.2
0
CIRCLE
8
WHITE
10
121.7
20
-110.2
40
0.2
0
CIRCLE
8
WHITE
10
119
20
-135.9
40
0.2
0
CIRCLE
8
WHITE
10
119
20
-100.5
40
0.2
0
CIRCLE
8
WHITE
10
86.525
20
-72.925
40
0.2
0
CIRCLE
8
WHITE
10
139.525
20
-113.775
40
0.15
0
CIRCLE
8
WHITE
10
127.662
20
-136.6
40
0.2
0
CIRCLE
8
WHITE
10
118
20
-73.2
40
0.2
0
CIRCLE
8
WHITE
10
124
20
-128.4
40
0.2
0
CIRCLE
8
WHITE
10
160.4
20
-86.5
40
0.2
0
CIRCLE
8
WHITE
10
112.7
20
-83.1
40
0.2
0
CIRCLE
8
WHITE
10
123.475
20
-141.925
40
0.2
0
CIRCLE
8
WHITE
10
121.2
20
-133.4
40
0.2
0
CIRCLE
8
WHITE
10
119.6
20
-133.4
40
0.2
0
CIRCLE
8
WHITE
10
118
20
-133.4
40
0.2
0
CIRCLE
8
WHITE
10
151.5
20
-78.7075
40
0.2
0
CIRCLE
8
WHITE
10
150.5
20
-79.7075
40
0.2
0
CIRCLE
8
WHITE
10
159.9
20
-98.4
40
0.2
0
CIRCLE
8
WHITE
10
151.5
20
-77.7075
40
0.2
0
CIRCLE
8
WHITE
10
150.5
20
-78.7075
40
0.2
0
CIRCLE
8
WHITE
10
149.2
20
-88.8
40
0.2
0
CIRCLE
8
WHITE
10
151.5
20
-79.7075
40
0.2
0
CIRCLE
8
WHITE
10
150.5
20
-76.7075
40
0.2
0
CIRCLE
8
WHITE
10
151.5
20
-76.7075
40
0.2
0
CIRCLE
8
WHITE
10
152.55
20
-75.3
40
0.2
0
CIRCLE
8
WHITE
10
159.9
20
-97.5
40
0.2
0
CIRCLE
8
WHITE
10
158.8
20
-97.5
40
0.2
0
CIRCLE
8
WHITE
10
150.5
20
-77.7075
40
0.2
0
CIRCLE
8
WHITE
10
158.8
20
-98.4
40
0.2
0
CIRCLE
8
WHITE
10
125
20
-143
40
0.2
0
CIRCLE
8
WHITE
10
52
20
-110.5
40
0.2
0
CIRCLE
8
WHITE
10
113
20
-98
40
0.2
0
CIRCLE
8
WHITE
10
113
20
-123
40
0.2
0
CIRCLE
8
WHITE
10
153
20
-117
40
0.2
0
CIRCLE
8
WHITE
10
92
20
-122
40
0.2
0
CIRCLE
8
WHITE
10
159
20
-105.5
40
0.2
0
CIRCLE
8
WHITE
10
55
20
-85
40
0.2
0
CIRCLE
8
WHITE
10
147
20
-141
40
0.2
0
CIRCLE
8
WHITE
10
108
20
-98
40
0.2
0
CIRCLE
8
WHITE
10
149
20
-110
40
0.2
0
CIRCLE
8
WHITE
10
137
20
-99
40
0.15
0
CIRCLE
8
WHITE
10
167
20
-133
40
0.2
0
CIRCLE
8
WHITE
10
127
20
-122
40
0.2
0
CIRCLE
8
WHITE
10
39.5
20
-110.5
40
0.2
0
CIRCLE
8
WHITE
10
46
20
-80.9
40
0.2
0
CIRCLE
8
WHITE
10
156
20
-76.7075
40
0.2
0
CIRCLE
8
WHITE
10
161.2
20
-90.6005
40
0.2
0
CIRCLE
8
WHITE
10
88
20
-98
40
0.2
0
CIRCLE
8
WHITE
10
37
20
-98
40
0.2
0
CIRCLE
8
WHITE
10
149
20
-126
40
0.2
0
CIRCLE
8
WHITE
10
151
20
-134.5
40
0.2
0
CIRCLE
8
WHITE
10
127.8
20
-130.8
40
0.2
0
CIRCLE
8
WHITE
10
83
20
-98
40
0.2
0
CIRCLE
8
WHITE
10
152
20
-103
40
0.2
0
CIRCLE
8
WHITE
10
141
20
-146
40
0.2
0
CIRCLE
8
WHITE
10
62
20
-98
40
0.2
0
CIRCLE
8
WHITE
10
156
20
-84.7075
40
0.2
0
CIRCLE
8
WHITE
10
155
20
-84.7075
40
0.2
0
CIRCLE
8
WHITE
10
151
20
-128
40
0.2
0
CIRCLE
8
WHITE
10
151
20
-130
40
0.2
0
CIRCLE
8
WHITE
10
159
20
-108.5
40
0.2
0
CIRCLE
8
WHITE
10
98.875
20
-77.875
40
0.2
0
CIRCLE
8
WHITE
10
101
20
-122
40
0.2
0
CIRCLE
8
WHITE
10
151
20
-136
40
0.2
0
CIRCLE
8
WHITE
10
65
20
-86
40
0.2
0
CIRCLE
8
WHITE
10
151
20
-126
40
0.2
0
CIRCLE
8
WHITE
10
137
20
-120
40
0.15
0
CIRCLE
8
WHITE
10
138
20
-109.2
40
0.15
0
CIRCLE
8
WHITE
10
93
20
-85.5
40
0.2
0
CIRCLE
8
WHITE
10
58
20
-98
40
0.2
0
CIRCLE
8
WHITE
10
149
20
-134.5
40
0.2
0
CIRCLE
8
WHITE
10
125
20
-140
40
0.2
0
CIRCLE
8
WHITE
10
147
20
-108
40
0.2
0
CIRCLE
8
WHITE
10
55
20
-87
40
0.2
0
CIRCLE
8
WHITE
10
172
20
-110
40
0.2
0
CIRCLE
8
WHITE
10
124
20
-143
40
0.2
0
CIRCLE
8
WHITE
10
157
20
-84.7075
40
0.2
0
CIRCLE
8
WHITE
10
86.4
20
-71
40
0.2
0
CIRCLE
8
WHITE
10
77
20
-110.5
40
0.2
0
CIRCLE
8
WHITE
10
80
20
-85
40
0.2
0
CIRCLE
8
WHITE
10
157
20
-76.7075
40
0.2
0
CIRCLE
8
WHITE
10
92.365
20
-74.865
40
0.2
0
CIRCLE
8
WHITE
10
24.25
20
-98
40
0.2
0
CIRCLE
8
WHITE
10
149
20
-133
40
0.2
0
CIRCLE
8
WHITE
10
151
20
-141
40
0.2
0
CIRCLE
8
WHITE
10
81
20
-88
40
0.2
0
CIRCLE
8
WHITE
10
71
20
-81
40
0.2
0
CIRCLE
8
WHITE
10
125
20
-141
40
0.2
0
CIRCLE
8
WHITE
10
147.5
20
-77.5
40
0.2
0
CIRCLE
8
WHITE
10
47.5
20
-98
40
0.2
0
CIRCLE
8
WHITE
10
133.6
20
-139
40
0.2
0
CIRCLE
8
WHITE
10
139
20
-146
40
0.2
0
CIRCLE
8
WHITE
10
125
20
-142
40
0.2
0
CIRCLE
8
WHITE
10
126
20
-74
40
0.2
0
CIRCLE
8
WHITE
10
105.5
20
-85.5
40
0.2
0
CIRCLE
8
WHITE
10
139
20
-141
40
0.2
0
CIRCLE
8
WHITE
10
164
20
-143
40
0.2
0
CIRCLE
8
WHITE
10
115
20
-81
40
0.2
0
CIRCLE
8
WHITE
10
153.25
20
-86.75
40
0.2
0
CIRCLE
8
WHITE
10
114.5
20
-110.5
40
0.2
0
CIRCLE
8
WHITE
10
115
20
-84.5
40
0.2
0
CIRCLE
8
WHITE
10
74
20
-98
40
0.2
0
CIRCLE
8
WHITE
10
113.3
20
-142.4
40
0.2
0
CIRCLE
8
WHITE
10
89.5
20
-110.5
40
0.2
0
CIRCLE
8
WHITE
10
149
20
-128
40
0.2
0
CIRCLE
8
WHITE
10
65
20
-81
40
0.2
0
CIRCLE
8
WHITE
10
149
20
-136
40
0.2
0
CIRCLE
8
WHITE
10
172
20
-95
40
0.2
0
CIRCLE
8
WHITE
10
98
20
-98
40
0.2
0
CIRCLE
8
WHITE
10
172
20
-125
40
0.2
0
CIRCLE
8
WHITE
10
154.45
20
-75.3
40
0.2
0
CIRCLE
8
WHITE
10
108.1
20
-70.9
40
0.2
0
CIRCLE
8
WHITE
10
165
20
-79
40
0.2
0
CIRCLE
8
WHITE
10
148
20
-109
40
0.2
0
CIRCLE
8
WHITE
10
102
20
-110.5
40
0.2
0
CIRCLE
8
WHITE
10
64.5
20
-110.5
40
0.2
0
CIRCLE
8
WHITE
10
154
20
-84.7075
40
0.2
0
CIRCLE
8
WHITE
10
151.5
20
-84.2075
40
0.2
0
CIRCLE
8
WHITE
10
151.5
20
-81.2075
40
0.2
0
CIRCLE
8
WHITE
10
150.5
20
-83.2075
40
0.2
0
CIRCLE
8
WHITE
10
150.5
20
-82.2075
40
0.2
0
CIRCLE
8
WHITE
10
150.5
20
-84.2075
40
0.2
0
CIRCLE
8
WHITE
10
151.5
20
-82.2075
40
0.2
0
CIRCLE
8
WHITE
10
150.5
20
-81.2075
40
0.2
0
CIRCLE
8
WHITE
10
151.5
20
-83.2075
40
0.2
0
CIRCLE
8
WHITE
10
149.5
20
-97
40
0.2
0
CIRCLE
8
WHITE
10
154
20
-90.5
40
0.2
0
CIRCLE
8
WHITE
10
153
20
-91.5
40
0.2
0
CIRCLE
8
WHITE
10
153
20
-90.5
40
0.2
0
CIRCLE
8
WHITE
10
158.9
20
-91.1
40
0.2
0
CIRCLE
8
WHITE
10
159.1
20
-86.8
40
0.2
0
CIRCLE
8
WHITE
10
159.6
20
-92.2
40
0.2
0
CIRCLE
8
WHITE
10
134
20
-144.2
40
0.2
0
CIRCLE
8
WHITE
10
132.725
20
-148.075
40
0.2
0
CIRCLE
8
WHITE
10
162.155
20
-78.095
40
0.2
0
CIRCLE
8
WHITE
10
165
20
-80.75
40
0.2
0
CIRCLE
8
WHITE
10
77
20
-98
40
0.899999
0
CIRCLE
8
WHITE
10
68
20
-98
40
0.899999
0
CIRCLE
8
WHITE
10
75
20
-91.75
40
0.6
0
CIRCLE
8
WHITE
10
75
20
-104.25
40
0.6
0
CIRCLE
8
WHITE
10
70
20
-91.75
40
0.6
0
CIRCLE
8
WHITE
10
70
20
-104.25
40
0.6
0
CIRCLE
8
WHITE
10
121.25
20
-75.25
40
0.5
0
CIRCLE
8
WHITE
10
114.75
20
-75.25
40
0.5
0
CIRCLE
8
WHITE
10
121.25
20
-70.75
40
0.5
0
CIRCLE
8
WHITE
10
114.75
20
-70.75
40
0.5
0
CIRCLE
8
WHITE
10
117.64
20
-126.5
40
0.45
0
CIRCLE
8
WHITE
10
118.91
20
-126.5
40
0.45
0
CIRCLE
8
WHITE
10
120.18
20
-126.5
40
0.45
0
CIRCLE
8
WHITE
10
121.45
20
-126.5
40
0.45
0
CIRCLE
8
WHITE
10
85
20
-93.5
40
0.899999
0
CIRCLE
8
WHITE
10
85
20
-102.5
40
0.899999
0
CIRCLE
8
WHITE
10
91.25
20
-100.5
40
0.6
0
CIRCLE
8
WHITE
10
78.75
20
-100.5
40
0.6
0
CIRCLE
8
WHITE
10
91.25
20
-95.5
40
0.6
0
CIRCLE
8
WHITE
10
78.75
20
-95.5
40
0.6
0
CIRCLE
8
WHITE
10
44
20
-110.5
40
0.899999
0
CIRCLE
8
WHITE
10
35
20
-110.5
40
0.899999
0
CIRCLE
8
WHITE
10
42
20
-104.25
40
0.6
0
CIRCLE
8
WHITE
10
42
20
-116.75
40
0.6
0
CIRCLE
8
WHITE
10
37
20
-104.25
40
0.6
0
CIRCLE
8
WHITE
10
37
20
-116.75
40
0.6
0
CIRCLE
8
WHITE
10
60
20
-102.5
40
0.899999
0
CIRCLE
8
WHITE
10
60
20
-93.5
40
0.899999
0
CIRCLE
8
WHITE
10
66.25
20
-100.5
40
0.6
0
CIRCLE
8
WHITE
10
53.75
20
-100.5
40
0.6
0
CIRCLE
8
WHITE
10
66.25
20
-95.5
40
0.6
0
CIRCLE
8
WHITE
10
53.75
20
-95.5
40
0.6
0
CIRCLE
8
WHITE
10
112.5
20
-74.27
40
0.45
0
CIRCLE
8
WHITE
10
112.5
20
-71.73
40
0.45
0
CIRCLE
8
WHITE
10
110
20
-110.5
40
0.899999
0
CIRCLE
8
WHITE
10
119
20
-110.5
40
0.899999
0
CIRCLE
8
WHITE
10
117
20
-104.25
40
0.6
0
CIRCLE
8
WHITE
10
117
20
-116.75
40
0.6
0
CIRCLE
8
WHITE
10
112
20
-104.25
40
0.6
0
CIRCLE
8
WHITE
10
112
20
-116.75
40
0.6
0
CIRCLE
8
WHITE
10
93
20
-90
40
0.899999
0
CIRCLE
8
WHITE
10
93
20
-81
40
0.899999
0
CIRCLE
8
WHITE
10
99.25
20
-88
40
0.6
0
CIRCLE
8
WHITE
10
86.75
20
-88
40
0.6
0
CIRCLE
8
WHITE
10
99.25
20
-83
40
0.6
0
CIRCLE
8
WHITE
10
86.75
20
-83
40
0.6
0
CIRCLE
8
WHITE
10
110
20
-93.5
40
0.899999
0
CIRCLE
8
WHITE
10
110
20
-102.5
40
0.899999
0
CIRCLE
8
WHITE
10
116.25
20
-100.5
40
0.6
0
CIRCLE
8
WHITE
10
103.75
20
-100.5
40
0.6
0
CIRCLE
8
WHITE
10
116.25
20
-95.5
40
0.6
0
CIRCLE
8
WHITE
10
103.75
20
-95.5
40
0.6
0
CIRCLE
8
WHITE
10
43
20
-81
40
0.899999
0
CIRCLE
8
WHITE
10
43
20
-90
40
0.899999
0
CIRCLE
8
WHITE
10
49.25
20
-88
40
0.6
0
CIRCLE
8
WHITE
10
36.75
20
-88
40
0.6
0
CIRCLE
8
WHITE
10
49.25
20
-83
40
0.6
0
CIRCLE
8
WHITE
10
36.75
20
-83
40
0.6
0
CIRCLE
8
WHITE
10
69
20
-110.5
40
0.899999
0
CIRCLE
8
WHITE
10
60
20
-110.5
40
0.899999
0
CIRCLE
8
WHITE
10
67
20
-104.25
40
0.6
0
CIRCLE
8
WHITE
10
67
20
-116.75
40
0.6
0
CIRCLE
8
WHITE
10
62
20
-104.25
40
0.6
0
CIRCLE
8
WHITE
10
62
20
-116.75
40
0.6
0
CIRCLE
8
WHITE
10
170
20
-84.03
40
0.8
0
CIRCLE
8
WHITE
10
170
20
-92.03
40
0.8
0
LINE
8
WHITE
6
CONTINUOUS
10
170.5
20
-87.33
11
170.5
21
-88.73
0
LINE
8
WHITE
6
CONTINUOUS
10
172.3
20
-87.33
11
172.3
21
-88.73
0
ARC
8
WHITE
10
171.4
20
-88.73
40
0.9
50
180
51
360
0
ARC
8
WHITE
10
171.4
20
-87.33
40
0.9
50
0
51
180
0
CIRCLE
8
WHITE
10
167
20
-88.03
40
0.75
0
LINE
8
WHITE
6
CONTINUOUS
10
161.7
20
-87.33
11
161.7
21
-88.73
0
LINE
8
WHITE
6
CONTINUOUS
10
163.5
20
-87.33
11
163.5
21
-88.73
0
ARC
8
WHITE
10
162.6
20
-88.73
40
0.9
50
180
51
360
0
ARC
8
WHITE
10
162.6
20
-87.33
40
0.9
50
0
51
180
0
CIRCLE
8
WHITE
10
164
20
-84.03
40
0.8
0
CIRCLE
8
WHITE
10
164
20
-92.03
40
0.8
0
LINE
8
WHITE
6
CONTINUOUS
10
164.05
20
-95.38
11
164.95
21
-95.38
0
LINE
8
WHITE
6
CONTINUOUS
10
164.05
20
-94.68
11
164.95
21
-94.68
0
ARC
8
WHITE
10
164.95
20
-95.03
40
0.35
50
270
51
450
0
ARC
8
WHITE
10
164.05
20
-95.03
40
0.35
50
90
51
270
0
LINE
8
WHITE
6
CONTINUOUS
10
166.55
20
-95.38
11
167.45
21
-95.38
0
LINE
8
WHITE
6
CONTINUOUS
10
166.55
20
-94.68
11
167.45
21
-94.68
0
ARC
8
WHITE
10
167.45
20
-95.03
40
0.35
50
270
51
450
0
ARC
8
WHITE
10
166.55
20
-95.03
40
0.35
50
90
51
270
0
LINE
8
WHITE
6
CONTINUOUS
10
169.05
20
-95.38
11
169.95
21
-95.38
0
LINE
8
WHITE
6
CONTINUOUS
10
169.05
20
-94.68
11
169.95
21
-94.68
0
ARC
8
WHITE
10
169.95
20
-95.03
40
0.35
50
270
51
450
0
ARC
8
WHITE
10
169.05
20
-95.03
40
0.35
50
90
51
270
0
CIRCLE
8
WHITE
10
102
20
-98
40
0.899999
0
CIRCLE
8
WHITE
10
93
20
-98
40
0.899999
0
CIRCLE
8
WHITE
10
100
20
-91.75
40
0.6
0
CIRCLE
8
WHITE
10
100
20
-104.25
40
0.6
0
CIRCLE
8
WHITE
10
95
20
-91.75
40
0.6
0
CIRCLE
8
WHITE
10
95
20
-104.25
40
0.6
0
CIRCLE
8
WHITE
10
170.25
20
-131.75
40
0.5
0
CIRCLE
8
WHITE
10
163.75
20
-131.75
40
0.5
0
CIRCLE
8
WHITE
10
170.25
20
-127.25
40
0.5
0
CIRCLE
8
WHITE
10
163.75
20
-127.25
40
0.5
0
CIRCLE
8
WHITE
10
77
20
-115
40
0.899999
0
CIRCLE
8
WHITE
10
77
20
-106
40
0.899999
0
CIRCLE
8
WHITE
10
83.25
20
-113
40
0.6
0
CIRCLE
8
WHITE
10
70.75
20
-113
40
0.6
0
CIRCLE
8
WHITE
10
83.25
20
-108
40
0.6
0
CIRCLE
8
WHITE
10
70.75
20
-108
40
0.6
0
CIRCLE
8
WHITE
10
52
20
-106
40
0.899999
0
CIRCLE
8
WHITE
10
52
20
-115
40
0.899999
0
CIRCLE
8
WHITE
10
58.25
20
-113
40
0.6
0
CIRCLE
8
WHITE
10
45.75
20
-113
40
0.6
0
CIRCLE
8
WHITE
10
58.25
20
-108
40
0.6
0
CIRCLE
8
WHITE
10
45.75
20
-108
40
0.6
0
CIRCLE
8
WHITE
10
102
20
-106
40
0.899999
0
CIRCLE
8
WHITE
10
102
20
-115
40
0.899999
0
CIRCLE
8
WHITE
10
108.25
20
-113
40
0.6
0
CIRCLE
8
WHITE
10
95.75
20
-113
40
0.6
0
CIRCLE
8
WHITE
10
108.25
20
-108
40
0.6
0
CIRCLE
8
WHITE
10
95.75
20
-108
40
0.6
0
CIRCLE
8
WHITE
10
135.25
20
-89.4
40
0.51
0
CIRCLE
8
WHITE
10
137.8
20
-89.45
40
0.51
0
CIRCLE
8
WHITE
10
136.45
20
-93.35
40
0.9
0
CIRCLE
8
WHITE
10
135.23
20
-94.54
40
0.51
0
CIRCLE
8
WHITE
10
137.825
20
-91.975
40
0.51
0
CIRCLE
8
WHITE
10
136.5
20
-90.625
40
0.9
0
CIRCLE
8
WHITE
10
137.77
20
-94.54
40
0.51
0
CIRCLE
8
WHITE
10
135.23
20
-92
40
0.51
0
LINE
8
WHITE
6
CONTINUOUS
10
161.7
20
-102.33
11
161.7
21
-103.73
0
LINE
8
WHITE
6
CONTINUOUS
10
163.5
20
-102.33
11
163.5
21
-103.73
0
ARC
8
WHITE
10
162.6
20
-103.73
40
0.9
50
180
51
360
0
ARC
8
WHITE
10
162.6
20
-102.33
40
0.9
50
0
51
180
0
CIRCLE
8
WHITE
10
170
20
-107.03
40
0.8
0
CIRCLE
8
WHITE
10
170
20
-99.03
40
0.8
0
CIRCLE
8
WHITE
10
167
20
-103.03
40
0.75
0
CIRCLE
8
WHITE
10
164
20
-99.03
40
0.8
0
CIRCLE
8
WHITE
10
164
20
-107.03
40
0.8
0
LINE
8
WHITE
6
CONTINUOUS
10
170.5
20
-102.33
11
170.5
21
-103.73
0
LINE
8
WHITE
6
CONTINUOUS
10
172.3
20
-102.33
11
172.3
21
-103.73
0
ARC
8
WHITE
10
171.4
20
-103.73
40
0.9
50
180
51
360
0
ARC
8
WHITE
10
171.4
20
-102.33
40
0.9
50
0
51
180
0
LINE
8
WHITE
6
CONTINUOUS
10
164.05
20
-110.38
11
164.95
21
-110.38
0
LINE
8
WHITE
6
CONTINUOUS
10
164.05
20
-109.68
11
164.95
21
-109.68
0
ARC
8
WHITE
10
164.95
20
-110.03
40
0.35
50
270
51
450
0
ARC
8
WHITE
10
164.05
20
-110.03
40
0.35
50
90
51
270
0
LINE
8
WHITE
6
CONTINUOUS
10
166.55
20
-110.38
11
167.45
21
-110.38
0
LINE
8
WHITE
6
CONTINUOUS
10
166.55
20
-109.68
11
167.45
21
-109.68
0
ARC
8
WHITE
10
167.45
20
-110.03
40
0.35
50
270
51
450
0
ARC
8
WHITE
10
166.55
20
-110.03
40
0.35
50
90
51
270
0
LINE
8
WHITE
6
CONTINUOUS
10
169.05
20
-110.38
11
169.95
21
-110.38
0
LINE
8
WHITE
6
CONTINUOUS
10
169.05
20
-109.68
11
169.95
21
-109.68
0
ARC
8
WHITE
10
169.95
20
-110.03
40
0.35
50
270
51
450
0
ARC
8
WHITE
10
169.05
20
-110.03
40
0.35
50
90
51
270
0
CIRCLE
8
WHITE
10
68
20
-81
40
0.899999
0
CIRCLE
8
WHITE
10
68
20
-90
40
0.899999
0
CIRCLE
8
WHITE
10
74.25
20
-88
40
0.6
0
CIRCLE
8
WHITE
10
61.75
20
-88
40
0.6
0
CIRCLE
8
WHITE
10
74.25
20
-83
40
0.6
0
CIRCLE
8
WHITE
10
61.75
20
-83
40
0.6
0
CIRCLE
8
WHITE
10
22.75
20
-79.75
40
0.5
0
CIRCLE
8
WHITE
10
22.75
20
-86.25
40
0.5
0
CIRCLE
8
WHITE
10
18.25
20
-79.75
40
0.5
0
CIRCLE
8
WHITE
10
18.25
20
-86.25
40
0.5
0
CIRCLE
8
WHITE
10
156.1
20
-94.1
40
0.1
0
CIRCLE
8
WHITE
10
157.2
20
-93
40
0.1
0
CIRCLE
8
WHITE
10
157.2
20
-91.9
40
0.1
0
CIRCLE
8
WHITE
10
156.1
20
-91.9
40
0.1
0
CIRCLE
8
WHITE
10
157.2
20
-94.1
40
0.1
0
CIRCLE
8
WHITE
10
155
20
-94.1
40
0.1
0
CIRCLE
8
WHITE
10
155
20
-93
40
0.1
0
CIRCLE
8
WHITE
10
156.1
20
-93
40
0.1
0
CIRCLE
8
WHITE
10
155
20
-91.9
40
0.1
0
CIRCLE
8
WHITE
10
136.45
20
-131.35
40
0.9
0
CIRCLE
8
WHITE
10
136.5
20
-128.625
40
0.9
0
CIRCLE
8
WHITE
10
137.825
20
-129.975
40
0.51
0
CIRCLE
8
WHITE
10
135.25
20
-127.4
40
0.51
0
CIRCLE
8
WHITE
10
137.8
20
-127.45
40
0.51
0
CIRCLE
8
WHITE
10
135.23
20
-130
40
0.51
0
CIRCLE
8
WHITE
10
135.23
20
-132.54
40
0.51
0
CIRCLE
8
WHITE
10
137.77
20
-132.54
40
0.51
0
CIRCLE
8
WHITE
10
76
20
-85.5
40
0.899999
0
CIRCLE
8
WHITE
10
85
20
-85.5
40
0.899999
0
CIRCLE
8
WHITE
10
83
20
-79.25
40
0.6
0
CIRCLE
8
WHITE
10
83
20
-91.75
40
0.6
0
CIRCLE
8
WHITE
10
78
20
-79.25
40
0.6
0
CIRCLE
8
WHITE
10
78
20
-91.75
40
0.6
0
CIRCLE
8
WHITE
10
85
20
-110.5
40
0.899999
0
CIRCLE
8
WHITE
10
94
20
-110.5
40
0.899999
0
CIRCLE
8
WHITE
10
92
20
-104.25
40
0.6
0
CIRCLE
8
WHITE
10
92
20
-116.75
40
0.6
0
CIRCLE
8
WHITE
10
87
20
-104.25
40
0.6
0
CIRCLE
8
WHITE
10
87
20
-116.75
40
0.6
0
CIRCLE
8
WHITE
10
43
20
-98
40
0.899999
0
CIRCLE
8
WHITE
10
52
20
-98
40
0.899999
0
CIRCLE
8
WHITE
10
50
20
-91.75
40
0.6
0
CIRCLE
8
WHITE
10
50
20
-104.25
40
0.6
0
CIRCLE
8
WHITE
10
45
20
-91.75
40
0.6
0
CIRCLE
8
WHITE
10
45
20
-104.25
40
0.6
0
LINE
8
WHITE
6
CONTINUOUS
10
170.5
20
-117.3
11
170.5
21
-118.7
0
LINE
8
WHITE
6
CONTINUOUS
10
172.3
20
-117.3
11
172.3
21
-118.7
0
ARC
8
WHITE
10
171.4
20
-118.7
40
0.9
50
180
51
360
0
ARC
8
WHITE
10
171.4
20
-117.3
40
0.9
50
0
51
180
0
CIRCLE
8
WHITE
10
170
20
-122
40
0.8
0
CIRCLE
8
WHITE
10
164
20
-114
40
0.8
0
CIRCLE
8
WHITE
10
167
20
-118
40
0.75
0
CIRCLE
8
WHITE
10
170
20
-114
40
0.8
0
CIRCLE
8
WHITE
10
164
20
-122
40
0.8
0
LINE
8
WHITE
6
CONTINUOUS
10
161.7
20
-117.3
11
161.7
21
-118.7
0
LINE
8
WHITE
6
CONTINUOUS
10
163.5
20
-117.3
11
163.5
21
-118.7
0
ARC
8
WHITE
10
162.6
20
-118.7
40
0.9
50
180
51
360
0
ARC
8
WHITE
10
162.6
20
-117.3
40
0.9
50
0
51
180
0
LINE
8
WHITE
6
CONTINUOUS
10
164.05
20
-125.35
11
164.95
21
-125.35
0
LINE
8
WHITE
6
CONTINUOUS
10
164.05
20
-124.65
11
164.95
21
-124.65
0
ARC
8
WHITE
10
164.95
20
-125
40
0.35
50
270
51
450
0
ARC
8
WHITE
10
164.05
20
-125
40
0.35
50
90
51
270
0
LINE
8
WHITE
6
CONTINUOUS
10
166.55
20
-125.35
11
167.45
21
-125.35
0
LINE
8
WHITE
6
CONTINUOUS
10
166.55
20
-124.65
11
167.45
21
-124.65
0
ARC
8
WHITE
10
167.45
20
-125
40
0.35
50
270
51
450
0
ARC
8
WHITE
10
166.55
20
-125
40
0.35
50
90
51
270
0
LINE
8
WHITE
6
CONTINUOUS
10
169.05
20
-125.35
11
169.95
21
-125.35
0
LINE
8
WHITE
6
CONTINUOUS
10
169.05
20
-124.65
11
169.95
21
-124.65
0
ARC
8
WHITE
10
169.95
20
-125
40
0.35
50
270
51
450
0
ARC
8
WHITE
10
169.05
20
-125
40
0.35
50
90
51
270
0
CIRCLE
8
WHITE
10
110
20
-85.5
40
0.899999
0
CIRCLE
8
WHITE
10
101
20
-85.5
40
0.899999
0
CIRCLE
8
WHITE
10
108
20
-79.25
40
0.6
0
CIRCLE
8
WHITE
10
108
20
-91.75
40
0.6
0
CIRCLE
8
WHITE
10
103
20
-79.25
40
0.6
0
CIRCLE
8
WHITE
10
103
20
-91.75
40
0.6
0
CIRCLE
8
WHITE
10
51
20
-85.5
40
0.899999
0
CIRCLE
8
WHITE
10
60
20
-85.5
40
0.899999
0
CIRCLE
8
WHITE
10
58
20
-79.25
40
0.6
0
CIRCLE
8
WHITE
10
58
20
-91.75
40
0.6
0
CIRCLE
8
WHITE
10
53
20
-79.25
40
0.6
0
CIRCLE
8
WHITE
10
53
20
-91.75
40
0.6
0
CIRCLE
8
WHITE
10
100.597
20
-137.732
40
0.599999
0
CIRCLE
8
WHITE
10
109.436
20
-128.893
40
0.599999
0
CIRCLE
8
WHITE
10
109.436
20
-135.964
40
0.599999
0
CIRCLE
8
WHITE
10
116.507
20
-135.964
40
0.599999
0
CIRCLE
8
WHITE
10
102.364
20
-135.964
40
0.599999
0
CIRCLE
8
WHITE
10
107.668
20
-144.803
40
0.599999
0
CIRCLE
8
WHITE
10
109.436
20
-143.036
40
0.599999
0
CIRCLE
8
WHITE
10
114.739
20
-134.197
40
0.5
0
CIRCLE
8
WHITE
10
112.971
20
-132.429
40
0.5
0
CIRCLE
8
WHITE
10
111.203
20
-130.661
40
0.5
0
LINE
8
WHITE
6
CONTINUOUS
10
106.112
20
-131.934
11
105.405
21
-132.641
0
LINE
8
WHITE
6
CONTINUOUS
10
106.395
20
-132.217
11
105.688
21
-132.924
0
ARC
8
WHITE
10
105.546
20
-132.782
40
0.2
50
495
51
675
0
ARC
8
WHITE
10
106.254
20
-132.075
40
0.2
50
315
51
495
0
LINE
8
WHITE
6
CONTINUOUS
10
107.88
20
-133.702
11
107.173
21
-134.409
0
LINE
8
WHITE
6
CONTINUOUS
10
108.163
20
-133.985
11
107.456
21
-134.692
0
ARC
8
WHITE
10
107.314
20
-134.55
40
0.2
50
495
51
675
0
ARC
8
WHITE
10
108.021
20
-133.843
40
0.2
50
315
51
495
0
LINE
8
WHITE
6
CONTINUOUS
10
105.405
20
-139.288
11
106.112
21
-139.995
0
LINE
8
WHITE
6
CONTINUOUS
10
105.688
20
-139.005
11
106.395
21
-139.712
0
ARC
8
WHITE
10
106.254
20
-139.854
40
0.2
50
225
51
405
0
ARC
8
WHITE
10
105.546
20
-139.146
40
0.2
50
45
51
225
0
LINE
8
WHITE
6
CONTINUOUS
10
112.759
20
-139.995
11
113.466
21
-139.288
0
LINE
8
WHITE
6
CONTINUOUS
10
112.476
20
-139.712
11
113.183
21
-139.005
0
ARC
8
WHITE
10
113.325
20
-139.146
40
0.2
50
315
51
495
0
ARC
8
WHITE
10
112.618
20
-139.854
40
0.2
50
135
51
315
0
LINE
8
WHITE
6
CONTINUOUS
10
110.991
20
-138.227
11
111.698
21
-137.52
0
LINE
8
WHITE
6
CONTINUOUS
10
110.708
20
-137.944
11
111.415
21
-137.237
0
ARC
8
WHITE
10
111.557
20
-137.379
40
0.2
50
315
51
495
0
ARC
8
WHITE
10
110.85
20
-138.086
40
0.2
50
135
51
315
0
CIRCLE
8
WHITE
10
35
20
-85.5
40
0.899999
0
CIRCLE
8
WHITE
10
26
20
-85.5
40
0.899999
0
CIRCLE
8
WHITE
10
33
20
-79.25
40
0.6
0
CIRCLE
8
WHITE
10
33
20
-91.75
40
0.6
0
CIRCLE
8
WHITE
10
28
20
-79.25
40
0.6
0
CIRCLE
8
WHITE
10
28
20
-91.75
40
0.6
0
CIRCLE
8
WHITE
10
163.75
20
-134.25
40
0.5
0
CIRCLE
8
WHITE
10
170.25
20
-134.25
40
0.5
0
CIRCLE
8
WHITE
10
163.75
20
-138.75
40
0.5
0
CIRCLE
8
WHITE
10
170.25
20
-138.75
40
0.5
0
CIRCLE
8
WHITE
10
35
20
-93.5
40
0.899999
0
CIRCLE
8
WHITE
10
35
20
-102.5
40
0.899999
0
CIRCLE
8
WHITE
10
41.25
20
-100.5
40
0.6
0
CIRCLE
8
WHITE
10
28.75
20
-100.5
40
0.6
0
CIRCLE
8
WHITE
10
41.25
20
-95.5
40
0.6
0
CIRCLE
8
WHITE
10
28.75
20
-95.5
40
0.6
0
CIRCLE
8
WHITE
10
142.757
20
-81.7
40
0.375
0
CIRCLE
8
WHITE
10
142.757
20
-83.7
40
0.375
0
CIRCLE
8
WHITE
10
144.13
20
-148.375
40
0.475
0
CIRCLE
8
WHITE
10
144.13
20
-145.835
40
0.475
0
CIRCLE
8
WHITE
10
144.13
20
-143.295
40
0.475
0
CIRCLE
8
WHITE
10
144.13
20
-140.755
40
0.475
0
CIRCLE
8
WHITE
10
144.13
20
-138.215
40
0.475
0
CIRCLE
8
WHITE
10
144.13
20
-135.675
40
0.475
0
CIRCLE
8
WHITE
10
144.13
20
-133.135
40
0.475
0
CIRCLE
8
WHITE
10
144.13
20
-130.595
40
0.475
0
CIRCLE
8
WHITE
10
144.13
20
-128.055
40
0.475
0
CIRCLE
8
WHITE
10
144.13
20
-125.515
40
0.475
0
CIRCLE
8
WHITE
10
144.13
20
-122.975
40
0.475
0
CIRCLE
8
WHITE
10
144.13
20
-120.435
40
0.475
0
CIRCLE
8
WHITE
10
144.13
20
-117.895
40
0.475
0
CIRCLE
8
WHITE
10
144.13
20
-115.355
40
0.475
0
CIRCLE
8
WHITE
10
159.37
20
-115.355
40
0.475
0
CIRCLE
8
WHITE
10
159.37
20
-117.895
40
0.475
0
CIRCLE
8
WHITE
10
159.37
20
-120.435
40
0.475
0
CIRCLE
8
WHITE
10
159.37
20
-122.975
40
0.475
0
CIRCLE
8
WHITE
10
159.37
20
-125.515
40
0.475
0
CIRCLE
8
WHITE
10
159.37
20
-128.055
40
0.475
0
CIRCLE
8
WHITE
10
159.37
20
-130.595
40
0.475
0
CIRCLE
8
WHITE
10
159.37
20
-133.135
40
0.475
0
CIRCLE
8
WHITE
10
159.37
20
-135.675
40
0.475
0
CIRCLE
8
WHITE
10
159.37
20
-138.215
40
0.475
0
CIRCLE
8
WHITE
10
159.37
20
-140.755
40
0.475
0
CIRCLE
8
WHITE
10
159.37
20
-143.295
40
0.475
0
CIRCLE
8
WHITE
10
159.37
20
-145.835
40
0.475
0
CIRCLE
8
WHITE
10
159.37
20
-148.375
40
0.475
0
CIRCLE
8
WHITE
10
156.83
20
-145.835
40
0.475
  0
ENDSEC
  0
EOF
