%TF.GenerationSoftware,KiCad,Pcbnew,(6.0.10-0)*%
%TF.CreationDate,2025-02-07T07:57:24+01:00*%
%TF.ProjectId,Keymaster PCB,4b65796d-6173-4746-9572-205043422e6b,rev?*%
%TF.SameCoordinates,Original*%
%TF.FileFunction,Copper,L2,Bot*%
%TF.FilePolarity,Positive*%
%FSLAX46Y46*%
G04 Gerber Fmt 4.6, Leading zero omitted, Abs format (unit mm)*
G04 Created by KiCad (PCBNEW (6.0.10-0)) date 2025-02-07 07:57:24*
%MOMM*%
%LPD*%
G01*
G04 APERTURE LIST*
%TA.AperFunction,SMDPad,CuDef*%
%ADD10R,3.150000X1.000000*%
%TD*%
%TA.AperFunction,ViaPad*%
%ADD11C,0.800000*%
%TD*%
%TA.AperFunction,Conductor*%
%ADD12C,0.350000*%
%TD*%
G04 APERTURE END LIST*
D10*
%TO.P,J2,1,Pin_1*%
%TO.N,Net-(J2-Pad1)*%
X78025000Y-67460000D03*
%TO.P,J2,2,Pin_2*%
%TO.N,Net-(J2-Pad2)*%
X78025000Y-70000000D03*
%TO.P,J2,3,Pin_3*%
%TO.N,Net-(J2-Pad3)*%
X78025000Y-72540000D03*
%TO.P,J2,4,Pin_4*%
%TO.N,Net-(J2-Pad4)*%
X72975000Y-67460000D03*
%TO.P,J2,5,Pin_5*%
%TO.N,Net-(J2-Pad5)*%
X72975000Y-70000000D03*
%TO.P,J2,6,Pin_6*%
%TO.N,Net-(J2-Pad6)*%
X72975000Y-72540000D03*
%TD*%
%TO.P,J1,1,Pin_1*%
%TO.N,Net-(J1-Pad1)*%
X78025000Y-29460000D03*
%TO.P,J1,2,Pin_2*%
%TO.N,Net-(J1-Pad2)*%
X78025000Y-32000000D03*
%TO.P,J1,3,Pin_3*%
%TO.N,Net-(J1-Pad3)*%
X78025000Y-34540000D03*
%TO.P,J1,4,Pin_4*%
%TO.N,Net-(J1-Pad4)*%
X72975000Y-29460000D03*
%TO.P,J1,5,Pin_5*%
%TO.N,Net-(J1-Pad5)*%
X72975000Y-32000000D03*
%TO.P,J1,6,Pin_6*%
%TO.N,Net-(J1-Pad6)*%
X72975000Y-34540000D03*
%TD*%
D11*
%TO.N,Net-(J1-Pad1)*%
X89000000Y-17500000D03*
%TO.N,Net-(J1-Pad2)*%
X69000000Y-33500000D03*
%TO.N,Net-(J1-Pad3)*%
X79000000Y-41500000D03*
%TO.N,Net-(J2-Pad1)*%
X89000000Y-49500000D03*
%TO.N,Net-(J2-Pad2)*%
X69000000Y-65500000D03*
%TO.N,Net-(J2-Pad3)*%
X79000000Y-73500000D03*
%TO.N,Net-(J2-Pad4)*%
X79000000Y-57500000D03*
%TO.N,Net-(J2-Pad5)*%
X89000000Y-65500000D03*
%TO.N,Net-(J2-Pad6)*%
X69000000Y-81500000D03*
%TO.N,Net-(J1-Pad4)*%
X79000000Y-25500000D03*
%TO.N,Net-(J1-Pad5)*%
X89000000Y-33500000D03*
%TO.N,Net-(J1-Pad6)*%
X69000000Y-49500000D03*
%TD*%
D12*
%TO.N,Net-(J1-Pad1)*%
X89000000Y-26000000D02*
X89000000Y-17500000D01*
X85540000Y-29460000D02*
X89000000Y-26000000D01*
X78025000Y-29460000D02*
X85540000Y-29460000D01*
%TO.N,Net-(J1-Pad2)*%
X78025000Y-32000000D02*
X76775000Y-33250000D01*
X69250000Y-33250000D02*
X69000000Y-33500000D01*
X76775000Y-33250000D02*
X69250000Y-33250000D01*
%TO.N,Net-(J1-Pad3)*%
X78025000Y-34540000D02*
X78025000Y-40525000D01*
X78025000Y-40525000D02*
X79000000Y-41500000D01*
%TO.N,Net-(J2-Pad1)*%
X78290000Y-67460000D02*
X89000000Y-56750000D01*
X78025000Y-67460000D02*
X78290000Y-67460000D01*
X89000000Y-56750000D02*
X89000000Y-49500000D01*
%TO.N,Net-(J2-Pad2)*%
X70250000Y-68750000D02*
X69000000Y-67500000D01*
X69000000Y-67500000D02*
X69000000Y-65500000D01*
X78025000Y-70000000D02*
X76775000Y-68750000D01*
X76775000Y-68750000D02*
X70250000Y-68750000D01*
%TO.N,Net-(J2-Pad3)*%
X78025000Y-72540000D02*
X78040000Y-72540000D01*
X78040000Y-72540000D02*
X79000000Y-73500000D01*
%TO.N,Net-(J2-Pad4)*%
X79000000Y-61435000D02*
X79000000Y-57500000D01*
X72975000Y-67460000D02*
X79000000Y-61435000D01*
%TO.N,Net-(J2-Pad5)*%
X72975000Y-70000000D02*
X74500000Y-70000000D01*
X75750000Y-71250000D02*
X83250000Y-71250000D01*
X74500000Y-70000000D02*
X75750000Y-71250000D01*
X83250000Y-71250000D02*
X89000000Y-65500000D01*
%TO.N,Net-(J2-Pad6)*%
X72975000Y-72540000D02*
X72975000Y-77525000D01*
X72975000Y-77525000D02*
X69000000Y-81500000D01*
%TO.N,Net-(J1-Pad4)*%
X76500000Y-25500000D02*
X79000000Y-25500000D01*
X72975000Y-29460000D02*
X72975000Y-29025000D01*
X72975000Y-29025000D02*
X76500000Y-25500000D01*
%TO.N,Net-(J1-Pad5)*%
X74050000Y-32000000D02*
X75300000Y-30750000D01*
X75300000Y-30750000D02*
X86250000Y-30750000D01*
X72975000Y-32000000D02*
X74050000Y-32000000D01*
X86250000Y-30750000D02*
X89000000Y-33500000D01*
%TO.N,Net-(J1-Pad6)*%
X72975000Y-34540000D02*
X72975000Y-45525000D01*
X72975000Y-45525000D02*
X69000000Y-49500000D01*
%TD*%
M02*
